<?xml version="1.0" standalone="no"?>
<!DOCTYPE svg PUBLIC "-//W3C//DTD SVG 1.1//EN" "http://www.w3.org/Graphics/SVG/1.1/DTD/svg11.dtd" >
<svg xmlns="http://www.w3.org/2000/svg">
<metadata>Generated by IcoMoon</metadata>
<defs>
<font id="icomoon" horiz-adv-x="1024">
<font-face units-per-em="1024" ascent="960" descent="-64" />
<missing-glyph horiz-adv-x="1024" />
<glyph unicode="&#x20;" horiz-adv-x="512" d="" />
<glyph unicode="&#xe900;" glyph-name="instagram" d="M512 867.8c136.8 0 153-0.6 206.8-3 50-2.2 77-10.6 95-17.6 23.8-9.2 41-20.4 58.8-38.2 18-18 29-35 38.4-58.8 7-18 15.4-45.2 17.6-95 2.4-54 3-70.2 3-206.8s-0.6-153-3-206.8c-2.2-50-10.6-77-17.6-95-9.2-23.8-20.4-41-38.2-58.8-18-18-35-29-58.8-38.4-18-7-45.2-15.4-95-17.6-54-2.4-70.2-3-206.8-3s-153 0.6-206.8 3c-50 2.2-77 10.6-95 17.6-23.8 9.2-41 20.4-58.8 38.2-18 18-29 35-38.4 58.8-7 18-15.4 45.2-17.6 95-2.4 54-3 70.2-3 206.8s0.6 153 3 206.8c2.2 50 10.6 77 17.6 95 9.2 23.8 20.4 41 38.2 58.8 18 18 35 29 58.8 38.4 18 7 45.2 15.4 95 17.6 53.8 2.4 70 3 206.8 3zM512 960c-139 0-156.4-0.6-211-3-54.4-2.4-91.8-11.2-124.2-23.8-33.8-13.2-62.4-30.6-90.8-59.2-28.6-28.4-46-57-59.2-90.6-12.6-32.6-21.4-69.8-23.8-124.2-2.4-54.8-3-72.2-3-211.2s0.6-156.4 3-211c2.4-54.4 11.2-91.8 23.8-124.2 13.2-33.8 30.6-62.4 59.2-90.8 28.4-28.4 57-46 90.6-59 32.6-12.6 69.8-21.4 124.2-23.8 54.6-2.4 72-3 211-3s156.4 0.6 211 3c54.4 2.4 91.8 11.2 124.2 23.8 33.6 13 62.2 30.6 90.6 59s46 57 59 90.6c12.6 32.6 21.4 69.8 23.8 124.2 2.4 54.6 3 72 3 211s-0.6 156.4-3 211c-2.4 54.4-11.2 91.8-23.8 124.2-12.6 34-30 62.6-58.6 91-28.4 28.4-57 46-90.6 59-32.6 12.6-69.8 21.4-124.2 23.8-54.8 2.6-72.2 3.2-211.2 3.2v0zM512 711c-145.2 0-263-117.8-263-263s117.8-263 263-263 263 117.8 263 263c0 145.2-117.8 263-263 263zM512 277.4c-94.2 0-170.6 76.4-170.6 170.6s76.4 170.6 170.6 170.6c94.2 0 170.6-76.4 170.6-170.6s-76.4-170.6-170.6-170.6zM846.8 721.4c0-33.91-27.49-61.4-61.4-61.4s-61.4 27.49-61.4 61.4c0 33.91 27.49 61.4 61.4 61.4s61.4-27.49 61.4-61.4z" />
<glyph unicode="&#xe901;" glyph-name="linkedin" d="M384 576h177.106v-90.782h2.532c24.64 44.194 84.958 90.782 174.842 90.782 186.946 0 221.52-116.376 221.52-267.734v-308.266h-184.61v273.278c0 65.184-1.334 149.026-96.028 149.026-96.148 0-110.82-70.986-110.82-144.292v-278.012h-184.542v576zM64 576h192v-576h-192v576zM256 736c0-53.019-42.981-96-96-96s-96 42.981-96 96c0 53.019 42.981 96 96 96s96-42.981 96-96z" />
<glyph unicode="&#xe902;" glyph-name="youtube" d="M1013.8 652.8c0 0-10 70.6-40.8 101.6-39 40.8-82.6 41-102.6 43.4-143.2 10.4-358.2 10.4-358.2 10.4h-0.4c0 0-215 0-358.2-10.4-20-2.4-63.6-2.6-102.6-43.4-30.8-31-40.6-101.6-40.6-101.6s-10.2-82.8-10.2-165.8v-77.6c0-82.8 10.2-165.8 10.2-165.8s10-70.6 40.6-101.6c39-40.8 90.2-39.4 113-43.8 82-7.8 348.2-10.2 348.2-10.2s215.2 0.4 358.4 10.6c20 2.4 63.6 2.6 102.6 43.4 30.8 31 40.8 101.6 40.8 101.6s10.2 82.8 10.2 165.8v77.6c-0.2 82.8-10.4 165.8-10.4 165.8zM406.2 315.2v287.8l276.6-144.4-276.6-143.4z" />
<glyph unicode="&#xe903;" glyph-name="facebook" d="M608 768h160v192h-160c-123.514 0-224-100.486-224-224v-96h-128v-192h128v-512h192v512h160l32 192h-192v96c0 17.346 14.654 32 32 32z" />
<glyph unicode="&#xe904;" glyph-name="twitter" horiz-adv-x="951" d="M925.714 717.714c-25.143-36.571-56.571-69.143-92.571-95.429 0.571-8 0.571-16 0.571-24 0-244-185.714-525.143-525.143-525.143-104.571 0-201.714 30.286-283.429 82.857 14.857-1.714 29.143-2.286 44.571-2.286 86.286 0 165.714 29.143 229.143 78.857-81.143 1.714-149.143 54.857-172.571 128 11.429-1.714 22.857-2.857 34.857-2.857 16.571 0 33.143 2.286 48.571 6.286-84.571 17.143-148 91.429-148 181.143v2.286c24.571-13.714 53.143-22.286 83.429-23.429-49.714 33.143-82.286 89.714-82.286 153.714 0 34.286 9.143 65.714 25.143 93.143 90.857-112 227.429-185.143 380.571-193.143-2.857 13.714-4.571 28-4.571 42.286 0 101.714 82.286 184.571 184.571 184.571 53.143 0 101.143-22.286 134.857-58.286 41.714 8 81.714 23.429 117.143 44.571-13.714-42.857-42.857-78.857-81.143-101.714 37.143 4 73.143 14.286 106.286 28.571z" />
<glyph unicode="&#xe905;" glyph-name="plus" d="M810.667 469.334h-256v256c0 25.6-17.067 42.667-42.667 42.667s-42.667-17.067-42.667-42.667v-256h-256c-25.6 0-42.667-17.067-42.667-42.667s17.067-42.667 42.667-42.667h256v-256c0-25.6 17.067-42.667 42.667-42.667s42.667 17.067 42.667 42.667v256h256c25.6 0 42.667 17.067 42.667 42.667s-17.067 42.667-42.667 42.667z" />
<glyph unicode="&#xe906;" glyph-name="arrow-right, right, next" d="M621.254 82.746l320 320c24.994 24.992 24.994 65.516 0 90.51l-320 320c-24.994 24.992-65.516 24.992-90.51 0-24.994-24.994-24.994-65.516 0-90.51l210.746-210.746h-613.49c-35.346 0-64-28.654-64-64s28.654-64 64-64h613.49l-210.746-210.746c-12.496-12.496-18.744-28.876-18.744-45.254s6.248-32.758 18.744-45.254c24.994-24.994 65.516-24.994 90.51 0z" />
<glyph unicode="&#xe907;" glyph-name="appliances" d="M508.748 602.287c-102.617 0-186.445-83.828-186.445-186.445s83.828-185.722 186.445-185.722 186.445 83.828 186.445 186.445-83.828 185.722-186.445 185.722zM644.607 353.694c-36.133 0-65.761 29.629-65.761 65.761s29.629 65.761 65.761 65.761c2.168 0 3.613 0 5.781-0.723 10.117-20.957 15.898-44.082 15.898-68.652 0-21.68-4.336-42.637-12.285-61.426-2.891 0-5.781-0.723-9.394-0.723zM578.845 352.971c-18.789-21.68-44.805-33.965-73.711-33.965-54.199 0-97.558 44.082-97.558 97.558 0 54.199 44.082 97.558 97.558 97.558 27.461 0 52.754-10.84 71.543-31.074-15.898-16.621-25.293-39.746-25.293-64.316-0.723-25.293 10.117-48.418 27.461-65.761zM508.748 258.303c-87.441 0-158.261 70.82-158.261 158.261s70.82 158.261 158.261 158.261c50.586 0 95.39-23.848 124.296-61.426-12.285-1.445-24.57-5.781-34.687-11.562-23.848 26.738-57.090 41.914-93.222 41.914-69.375 0-125.742-56.367-125.742-125.742s56.367-125.742 125.742-125.742c37.578 0 72.265 16.621 96.113 45.527 10.84-5.781 23.848-9.394 36.855-10.117-28.183-42.637-75.879-69.375-129.355-69.375zM798.532 808.965h-588.963c-7.949 0-13.73-6.504-13.73-13.73v-686.521c0-7.949 6.504-13.73 13.73-13.73h588.963c7.949 0 13.73 6.504 13.73 13.73v686.521c0.723 7.949-5.781 13.73-13.73 13.73zM223.3 646.368h560.779v-465.389h-560.779v465.389zM784.802 780.782v-106.23h-561.502v106.23h561.502zM223.3 123.167v30.351h560.779v-30.351h-560.779z" />
<glyph unicode="&#xe908;" glyph-name="automotive" d="M321.581 669.493c-22.402-13.73-37.578-35.41-44.082-60.703-2.168-7.227 2.891-15.176 10.117-16.621 1.445 0 2.168-0.723 3.613-0.723 6.504 0 12.285 4.336 13.73 10.84 4.336 18.066 15.176 33.242 31.074 43.359 15.898 9.394 34.687 13.008 52.754 8.672 7.949-2.168 15.176 2.891 16.621 10.117 2.168 7.227-2.891 15.176-10.117 16.621-25.293 6.504-51.308 2.168-73.711-11.562zM135.136 628.302c1.445 0 2.168-0.723 3.613-0.723 6.504 0 12.285 4.336 13.73 10.84 14.453 59.258 50.586 109.121 101.894 140.195 51.308 31.797 112.734 41.191 171.269 27.461 7.949-2.168 15.176 2.891 16.621 10.117 2.168 7.227-2.891 15.176-10.117 16.621-66.484 15.898-134.414 5.059-192.948-30.351-57.812-35.41-99.004-91.777-114.902-158.261-1.445-6.504 3.613-13.73 10.84-15.898zM426.366 740.313c2.168 7.227-2.891 15.176-10.117 16.621-46.25 10.84-93.222 3.613-133.691-20.957s-68.652-63.594-79.492-109.121c-2.168-7.227 2.891-15.176 10.117-16.621 1.445 0 2.168-0.723 3.613-0.723 6.504 0 12.285 4.336 13.73 10.84 9.394 38.301 33.242 71.543 66.484 91.777 33.965 20.957 73.711 26.738 112.011 18.066 7.949-2.168 15.176 2.891 17.344 10.117zM982.086 404.279c0 0.723-0.723 0.723-0.723 1.445-5.781 11.562-12.285 23.125-19.512 35.41l-2.891 5.059c-22.402 37.578-133.691 153.203-138.749 157.538-2.168 2.168-4.336 3.613-7.227 3.613-2.891 0.723-30.351 6.504-72.265 11.562l31.074 31.074c5.781 5.781 5.781 14.453 0 20.234s-14.453 5.781-20.234 0l-47.695-47.695c-55.644 5.059-126.464 7.227-199.452 0-94.668-10.117-183.554-73.711-226.913-104.785-10.117-7.227-18.789-13.008-22.402-15.176-10.117-5.059-23.848-8.672-40.469-13.008-17.344-4.336-39.023-10.117-65.039-19.512-62.148-22.402-99.004-46.972-113.457-77.324-16.621-32.519-2.891-110.566-1.445-119.238 0.723-3.613 2.891-7.227 6.504-9.394 27.461-17.344 75.879-22.402 91.054-23.848 17.344-33.242 52.031-56.367 92.5-56.367 43.359 0 80.215 26.016 95.39 63.594h409.022c7.949 0 13.73 6.504 13.73 13.73 0 7.949-6.504 13.73-13.73 13.73h-401.795c0.723 3.613 0.723 7.949 0.723 11.562 0 57.090-46.25 104.062-104.062 104.062-57.090 0-104.062-46.25-104.062-104.062 0-5.781 0.723-12.285 1.445-18.066-18.066 2.168-44.082 7.227-60.703 15.176-1.445 8.672-2.891 18.789-3.613 29.629 1.445-0.723 2.168-0.723 3.613-1.445s2.891-0.723 4.336-0.723c5.781 0 11.562 3.613 13.73 9.394 2.168 7.227-1.445 15.176-8.672 18.066-6.504 2.168-10.84 4.336-13.73 5.059 0 15.176 1.445 28.183 5.059 35.41 11.562 23.125 44.082 43.359 99.726 63.594 24.57 8.672 45.527 14.453 62.871 18.789 18.789 5.059 33.965 8.672 46.25 15.176 5.781 2.891 13.73 8.672 26.016 17.344 41.191 29.629 126.464 90.332 213.183 99.726 136.582 14.453 269.55-8.672 294.843-13.73 13.008-13.008 62.148-65.039 97.558-106.23-9.394-2.168-13.008-6.504-13.73-8.672-3.613-5.781-4.336-13.008 0-19.512 6.504-11.562 43.359-58.535 59.258-66.484 4.336-2.168 7.949-2.891 11.562-2.891 1.445 0 2.891 0 4.336 0.723 3.613-12.285 5.059-24.57 3.613-41.191-2.168-29.629-9.394-41.191-18.789-46.25-1.445 55.644-47.695 101.171-103.339 101.171-57.090 0-104.062-46.25-104.062-104.062s46.25-104.062 104.062-104.062c47.695 0 87.441 32.519 99.726 75.879 31.074 6.504 46.972 29.629 50.586 74.433 1.445 30.351-3.613 51.308-13.008 71.543zM224.023 362.366c41.914 0 75.879-33.965 75.879-75.879s-33.965-75.879-75.879-75.879-75.879 33.965-75.879 75.879c0.723 41.914 33.965 75.879 75.879 75.879zM843.337 211.331c-41.914 0-75.879 33.965-75.879 75.879s33.965 75.879 75.879 75.879c41.914 0 75.879-33.965 75.879-75.879s-33.965-75.879-75.879-75.879zM919.938 447.639c1.445 0 2.168 0 3.613 0 5.059-6.504 8.672-11.562 11.562-15.898l2.891-5.059c0-0.723 0.723-0.723 0.723-1.445-6.504 7.227-13.73 15.176-18.789 22.402zM760.231 477.267c0-7.949 7.227-13.73 14.453-13.73l60.703 2.168c5.059 0 9.394 2.891 11.562 7.227s2.168 9.394 0 13.73c-19.512 34.687-62.148 74.433-105.507 84.55-40.469 9.394-135.136 10.117-231.972 2.168-93.945-7.949-199.452-97.558-203.788-101.171s-5.781-10.117-3.613-15.898c2.168-5.059 7.227-8.672 13.008-8.672 0 0 0 0 0.723 0l419.862 14.453c7.949 0 13.73 6.504 13.73 14.453s-7.227 14.453-14.453 13.73l-375.78-13.008c37.578 26.738 99.004 63.594 153.203 68.652 93.945 7.949 185.722 7.227 223.3-1.445 26.738-6.504 54.199-28.183 72.988-50.586l-35.41-0.723c-7.227-1.445-13.008-7.949-13.008-15.898z" />
<glyph unicode="&#xe909;" glyph-name="courbe-bas" d="M0.409 516.358v-135.828l724.987 128.051c91.485 16.168 197.432 1.569 299.082-88.483v96.26h-1024.068z" />
<glyph unicode="&#xe90a;" glyph-name="courbe-haut" d="M1024.205 518.336l-763.804-134.873c-91.485-16.168-182.423 3.82-260.127 55.054v-62.15h1024l-0.068 141.968z" />
<glyph unicode="&#xe90b;" glyph-name="energy" d="M898.258 243.85c-0.723 3.613-2.891 6.504-6.504 8.672l-300.624 180.663c-6.504 26.738-26.016 47.695-52.031 55.644 15.898 15.176 24.57 28.906 25.293 29.629 1.445 2.891 2.891 5.781 2.168 8.672-9.394 218.964-48.418 295.565-50.586 298.456-2.168 4.336-7.227 7.227-12.285 7.227h-30.351c-7.949 0-13.73-6.504-13.73-13.73v-349.764c-13.73-13.73-22.402-33.242-22.402-54.922 0-5.781 0.723-11.562 2.168-17.344-23.848 6.504-42.637 7.949-44.082 8.672-2.891 0-5.781-0.723-8.672-2.168-184.277-117.793-229.804-190.058-231.972-193.671-2.891-4.336-2.891-10.117 0-14.453l15.176-26.016c2.891-4.336 7.227-7.227 12.285-7.227 2.168 0 5.059 0.723 7.227 2.168l302.069 177.050c7.949-2.891 15.898-4.336 24.57-4.336 20.234 0 38.301 7.949 52.031 20.234 5.059-22.402 12.285-39.023 13.008-39.746 1.445-2.891 3.613-5.059 5.781-6.504 192.226-104.785 278.222-110.566 281.835-110.566 0 0 0.723 0 0.723 0 5.059 0 9.394 2.891 12.285 6.504l15.898 26.016c1.445 3.613 1.445 7.227 0.723 10.84zM495.018 805.352c9.394-23.125 36.133-103.339 43.359-273.886-5.781-7.949-20.957-26.016-39.746-40.469-3.613-0.723-7.227-2.168-10.84-2.891v317.245h7.227zM187.167 196.155l-3.613 5.781c15.176 19.512 70.82 83.105 214.628 176.327 10.117-1.445 36.855-5.059 60.703-16.621 0.723 0 0.723 0 1.445 0 1.445-1.445 2.168-2.168 3.613-3.613l-276.776-161.874zM515.252 365.979c-27.461 0-49.863 22.402-49.863 49.863s22.402 49.863 49.863 49.863c27.461 0 49.863-22.402 49.863-49.863s-22.402-49.863-49.863-49.863zM862.126 230.12c-24.57 4.336-106.953 22.402-257.265 104.062-3.613 9.394-12.285 33.965-14.453 59.98 0.723 2.168 1.445 4.336 1.445 6.504l273.886-164.765-3.613-5.781zM617.869 619.63c79.492-38.301 130.8-119.96 130.8-208.124 0-7.949 6.504-13.73 13.73-13.73 7.949 0 13.73 6.504 13.73 13.73 0 99.004-57.812 190.781-146.699 233.417-7.227 3.613-15.176 0.723-18.789-6.504-2.891-7.227 0-15.176 7.227-18.789zM272.44 397.053c7.949 0 13.73 6.504 13.73 13.73 0 84.55 46.25 162.597 120.683 203.066 6.504 3.613 9.394 12.285 5.781 18.789s-12.285 9.394-18.789 5.781c-83.105-44.805-135.136-132.246-135.136-226.913 0-7.949 5.781-14.453 13.73-14.453zM646.775 220.003c-38.301-26.016-83.105-39.746-129.355-39.746-46.972 0-91.777 13.73-130.078 39.746-6.504 4.336-15.176 2.891-19.512-3.613s-2.891-15.176 3.613-19.512c43.359-29.629 93.222-44.805 145.976-44.805 52.031 0 101.894 15.176 145.253 44.082 6.504 4.336 7.949 13.008 3.613 19.512s-13.008 8.672-19.512 4.336z" />
<glyph unicode="&#xe90c;" glyph-name="events" d="M938.727 600.119c-10.117 0-18.789-8.672-18.789-18.789v-491.404c0-4.336-2.891-7.227-7.227-7.227h-800.7c-4.336 0-7.227 2.891-7.227 7.227v491.404c0 10.117-8.672 18.789-18.789 18.789s-18.789-8.672-18.789-18.789v-491.404c0-24.57 20.234-44.805 44.805-44.805h801.423c24.57 0 44.805 20.234 44.805 44.805v491.404c-0.723 10.117-8.672 18.789-19.512 18.789zM189.335 290.1c-10.117 0-18.789-8.672-18.789-18.789s8.672-18.789 18.789-18.789h33.242v-84.55c0-10.117 8.672-18.789 18.789-18.789s18.789 8.672 18.789 18.789v84.55h143.808v-84.55c0-10.117 8.672-18.789 18.789-18.789s18.789 8.672 18.789 18.789v84.55h143.808v-84.55c0-10.117 8.672-18.789 18.789-18.789s18.789 8.672 18.789 18.789v84.55h143.808v-84.55c0-10.117 8.672-18.789 18.789-18.789s18.789 8.672 18.789 18.789v84.55h33.242c10.117 0 18.789 8.672 18.789 18.789s-8.672 18.789-18.789 18.789h-33.242v117.793h33.242c10.117 0 18.789 8.672 18.789 18.789s-8.672 18.789-18.789 18.789h-33.242v109.843c0 10.117-8.672 18.789-18.789 18.789s-18.789-8.672-18.789-18.789v-110.566h-145.253v110.566c0 10.117-8.672 18.789-18.789 18.789s-18.789-8.672-18.789-18.789v-110.566h-143.085v110.566c0 10.117-8.672 18.789-18.789 18.789s-18.789-8.672-18.789-18.789v-110.566h-143.808v110.566c0 10.117-8.672 18.789-18.789 18.789s-18.789-8.672-18.789-18.789v-110.566h-33.242c-10.117 0-18.789-8.672-18.789-18.789s8.672-18.789 18.789-18.789h33.242v-117.793h-32.519zM765.29 407.893v-117.793h-143.808v117.793h143.808zM584.627 407.893v-117.793h-143.808v117.793h143.808zM259.433 407.893h143.808v-117.793h-143.808v117.793zM919.938 832.813h-109.843c-10.117 0-18.789-8.672-18.789-18.789s8.672-18.789 18.789-18.789l109.121 0.723c0-0.723 1.445-2.891 1.445-7.949v-110.566h-815.876v110.566c0 4.336 2.891 7.227 7.227 7.227h103.339c10.117 0 18.789 8.672 18.789 18.789s-8.672 18.789-18.789 18.789h-103.339c-24.57 0-44.805-20.234-44.805-44.805v-129.355c0-10.117 8.672-18.789 18.789-18.789h852.731c10.117 0 18.789 8.672 18.789 18.789v129.355c0 33.242-20.234 44.805-37.578 44.805zM369.999 795.235h284.003c10.117 0 18.789 8.672 18.789 18.789s-8.672 18.789-18.789 18.789h-284.003c-10.117 0-18.789-8.672-18.789-18.789s8.672-18.789 18.789-18.789zM292.675 743.927c10.117 0 18.789 8.672 18.789 18.789v102.617c0 10.117-8.672 18.789-18.789 18.789s-18.789-8.672-18.789-18.789v-103.339c0-10.117 8.672-18.066 18.789-18.066zM732.048 743.927c10.117 0 18.789 8.672 18.789 18.789v102.617c0 10.117-8.672 18.789-18.789 18.789s-18.789-8.672-18.789-18.789v-103.339c0-10.117 8.672-18.066 18.789-18.066z" />
<glyph unicode="&#xe90d;" glyph-name="fleche" d="M966.188 495.334l-206.679 206.679c-16.621 16.621-43.359 16.621-59.258 0-16.621-16.621-16.621-43.359 0-59.258l135.136-135.136h-588.24c-23.125 0-41.914-18.789-41.914-41.914s18.789-41.914 41.914-41.914h587.517l-134.414-135.136c-16.621-16.621-16.621-43.359 0-59.258 7.949-7.949 18.789-12.285 29.629-12.285s21.68 4.336 29.629 12.285l206.679 206.679c16.621 15.898 16.621 42.637 0 59.258zM117.793 464.982c0-23.548-19.089-42.637-42.637-42.637s-42.637 19.089-42.637 42.637c0 23.548 19.089 42.637 42.637 42.637s42.637-19.089 42.637-42.637z" />
<glyph unicode="&#xe90e;" glyph-name="fleche-bas" d="M532.596-17.028l206.679 206.679c16.621 16.621 16.621 43.359 0 59.258-16.621 16.621-43.359 16.621-59.258 0l-134.414-134.414v587.517c0 23.125-18.789 41.914-41.914 41.914s-41.914-18.789-41.914-41.914v-587.517l-135.859 134.414c-16.621 16.621-43.359 16.621-59.258 0-7.949-7.949-12.285-18.789-12.285-29.629s4.336-21.68 12.285-29.629l206.679-206.679c16.621-16.621 43.359-16.621 59.258 0zM545.603 874.004c0-23.548-19.089-42.637-42.637-42.637s-42.637 19.089-42.637 42.637c0 23.548 19.089 42.637 42.637 42.637s42.637-19.089 42.637-42.637z" />
<glyph unicode="&#xe90f;" glyph-name="healthcare" d="M684.353 757.657c-52.031 0-101.894-19.512-140.917-54.199-13.008-12.285-24.57-25.293-34.687-40.469-9.394 14.453-20.957 28.183-34.687 40.469-38.301 35.41-88.886 54.199-140.917 54.199-115.625 0-210.292-93.945-210.292-210.292 0-78.047 23.848-139.472 80.937-205.234 81.66-95.39 288.339-240.644 297.011-246.425 2.168-1.445 5.059-2.891 7.949-2.891s5.781 0.723 7.949 2.891c8.672 5.781 215.351 151.035 297.011 246.425 56.367 65.761 80.937 127.187 80.937 205.234 0 116.347-93.945 210.292-210.292 210.292zM792.751 360.92c-70.82-82.382-244.257-208.124-283.28-236.308-39.746 28.183-213.183 153.925-283.28 236.308-52.754 59.98-75.156 116.347-75.156 186.445 0 100.449 81.66 182.109 182.109 182.109 44.805 0 88.164-16.621 122.128-46.972 16.621-15.176 30.351-33.242 41.191-54.199 2.168-5.059 7.227-7.949 12.285-7.949s10.117 2.891 12.285 7.949c10.117 20.234 23.848 38.301 41.191 54.199 33.965 30.351 77.324 46.972 122.128 46.972 100.449 0 182.109-81.66 182.109-182.109 0-70.097-22.402-126.464-73.711-186.445zM766.735 479.435h-99.726l-44.805 141.64c-2.168 5.781-7.227 9.394-13.008 10.117-6.504 0.723-11.562-3.613-13.73-8.672l-105.507-273.886-82.382 164.042c-2.168 4.336-6.504 7.227-11.562 7.949-5.059 0-9.394-2.168-12.285-5.781l-30.351-42.637h-109.843c-7.949 0-13.73-6.504-13.73-13.73s6.504-13.73 13.73-13.73h117.070c4.336 0 8.672 2.168 11.562 5.781l20.957 28.906 85.996-171.992c2.168-5.059 7.227-7.949 12.285-7.949 0 0 0.723 0 0.723 0 5.781 0 10.117 3.613 12.285 8.672l102.617 265.214 36.133-113.457c2.168-5.781 7.227-10.117 13.73-10.117h109.843c7.949 0 13.73 6.504 13.73 13.73s-5.781 15.898-13.73 15.898z" />
<glyph unicode="&#xe910;" glyph-name="hexagone" d="M335.311-9.801h345.428c54.199 0 104.062 28.906 130.8 75.879l172.714 299.179c26.738 46.972 26.738 104.785 0 151.757l-172.714 298.456c-26.738 46.972-77.324 75.879-130.8 75.879h-345.428c-54.199 0-104.062-28.906-130.8-75.879l-173.437-299.179c-26.738-46.972-26.738-104.785 0-151.757l172.714-299.179c26.738-46.25 77.324-75.156 131.523-75.156z" />
<glyph unicode="&#xe911;" glyph-name="industrie" d="M802.145 373.205c-13.008 0-24.57-5.059-33.965-13.73l-179.218 114.179c5.059 10.117 5.059 21.68-0.723 31.797l-11.562 20.957c0.723 0.723 0.723 1.445 1.445 2.891l35.41 158.261c2.891 1.445 4.336 4.336 5.781 7.227l67.207 53.476c2.168 0.723 4.336 2.891 5.781 4.336l2.168 1.445c2.891 2.168 4.336 5.059 5.059 8.672l8.672 49.863c0.723 4.336-0.723 7.949-2.891 11.562-3.613 4.336-7.227 5.781-11.562 5.781h-346.151c-4.336 0-7.949-2.168-10.84-5.059s-3.613-7.227-2.891-11.562l8.672-49.863c0.723-3.613 2.168-6.504 5.059-8.672l2.168-1.445c1.445-2.168 3.613-3.613 5.781-4.336l71.543-57.812 35.41-158.984-15.176-26.738c-5.781-10.117-5.781-22.402 0-32.519l1.445-2.891-169.101-107.675c-8.672 6.504-18.789 10.117-30.351 10.117-27.461 0-49.863-22.402-49.863-49.863s22.402-49.863 49.863-49.863c5.059 0 9.394 0.723 14.453 2.168l129.355-119.96c0.723-0.723 2.168-1.445 3.613-2.168v-41.191c0-7.949 6.504-13.73 13.73-13.73s13.73 6.504 13.73 13.73v89.609c0 7.949-6.504 13.73-13.73 13.73s-13.73-6.504-13.73-13.73v-10.117l-109.121 101.171c7.227 8.672 11.562 19.512 11.562 31.074 0 5.781-1.445 11.562-2.891 16.621l166.21 106.23 5.781-10.117c5.781-10.117 16.621-16.621 28.183-16.621h42.637c11.562 0 22.402 6.504 28.183 16.621l7.949 13.73 179.218-114.179c-0.723-3.613-1.445-7.949-1.445-11.562 0-12.285 4.336-23.125 11.562-31.797l-109.843-101.894v10.84c0 7.949-6.504 13.73-13.73 13.73-7.949 0-13.73-6.504-13.73-13.73v-88.886c0-7.949 6.504-13.73 13.73-13.73 7.949 0 13.73 6.504 13.73 13.73v41.191c1.445 0.723 2.891 1.445 4.336 2.891l129.355 119.96c4.336-1.445 8.672-2.168 13.73-2.168 27.461 0 49.863 22.402 49.863 49.863s-22.402 49.14-49.863 49.14zM227.636 323.342c0 11.562 9.394 21.68 21.68 21.68 11.562 0 21.68-9.394 21.68-21.68 0-11.562-9.394-21.68-21.68-21.68-11.562 0-21.68 10.117-21.68 21.68zM554.998 554.591c-5.059 2.891-10.117 4.336-15.898 4.336h-42.637c-3.613 0-7.227-0.723-10.84-2.168l-28.906 127.91h127.91l-29.629-130.078zM596.912 712.853h-153.203l-43.359 34.687h239.198l-42.637-34.687zM677.126 801.739l-4.336-26.016h-304.237l-4.336 26.016h312.909zM564.392 486.662l-21.68-36.855c-0.723-1.445-2.168-2.168-4.336-2.168h-42.637c-1.445 0-2.891 0.723-4.336 2.168l-20.957 36.855c-0.723 1.445-0.723 2.891 0 4.336l20.957 36.855c0.723 1.445 2.168 2.168 4.336 2.168h42.637c1.445 0 2.891-0.723 4.336-2.168l21.68-36.855c0.723-0.723 0.723-2.891 0-4.336zM802.145 301.663c-11.562 0-21.68 9.394-21.68 21.68 0 11.562 9.394 21.68 21.68 21.68s21.68-9.394 21.68-21.68c0-11.562-9.394-21.68-21.68-21.68z" />
<glyph unicode="&#xe912;" glyph-name="intuitive-graphical" d="M711.814 354.416c-15.176 0.723-27.461-3.613-35.41-7.949-8.672 5.059-20.957 10.84-36.855 10.84s-28.183-5.059-36.855-10.84c-11.562 7.227-34.687 13.008-52.754 8.672v175.605c0 72.988-119.96 73.711-119.96 0v-263.046c-18.789 16.621-40.469 36.855-51.308 46.972-19.512 19.512-55.644 23.848-76.601 8.672-7.227-5.059-28.183-23.848-10.84-61.426 22.402-47.695 163.32-217.519 179.218-237.030 3.613-4.336 8.672-6.504 14.453-6.504l215.351 0.723c3.613 0.723 86.718 23.125 86.718 183.554 0 143.808-67.207 151.757-75.156 151.757zM693.025 55.96h-199.452c-46.25 55.644-151.757 186.445-168.378 221.855-1.445 3.613-5.059 12.285-1.445 15.176 6.504 4.336 21.68 2.891 28.906-4.336 20.234-20.234 80.937-73.711 83.828-75.879 5.781-5.059 13.008-5.781 20.234-2.891 6.504 2.891 10.84 9.394 10.84 17.344v303.514c0 18.066 18.789 18.789 22.402 18.789 2.168 0 23.125-0.723 23.125-18.789v-205.956c0-7.227 4.336-14.453 11.562-17.344s15.176-1.445 20.234 4.336c0 0 7.949 7.949 21.68 7.949 13.008 0 21.68-9.394 21.68-9.394 3.613-4.336 8.672-6.504 13.73-6.504 5.059 0.723 10.84 2.168 14.453 6.504 0 0.723 8.672 9.394 22.402 9.394s22.402-9.394 22.402-9.394c3.613-4.336 9.394-7.949 15.898-7.227 5.781 0.723 10.84 3.613 14.453 8.672 0 0 4.336 5.059 18.066 5.059 2.891-0.723 39.746-12.285 39.746-114.179 0.723-116.347-46.972-142.363-56.367-146.699zM372.889 450.529c10.117 0 18.789 8.672 18.789 18.789s-8.672 18.789-18.789 18.789h-59.98v328.085h416.248v-328.085h-128.632c-10.117 0-18.789-8.672-18.789-18.789s8.672-18.789 18.789-18.789h147.421c10.117 0 18.789 8.672 18.789 18.789v365.663c0 10.117-8.672 18.789-18.789 18.789h-453.826c-10.117 0-18.789-8.672-18.789-18.789v-365.663c0-10.117 8.672-18.789 18.789-18.789h78.769zM969.078 360.92h-117.793v328.085h117.793c10.117 0 18.789 8.672 18.789 18.789s-8.672 18.789-18.789 18.789h-136.582c-10.117 0-18.789-8.672-18.789-18.789v-365.663c0-10.117 8.672-18.789 18.789-18.789h136.582c10.117 0 18.789 8.672 18.789 18.789s-8.672 18.789-18.789 18.789zM206.679 725.86h-135.859c-10.117 0-18.789-8.672-18.789-18.789s8.672-18.789 18.789-18.789h117.070v-328.085h-117.070c-10.117 0-18.789-8.672-18.789-18.789s8.672-18.789 18.789-18.789h136.582c10.117 0 18.789 8.672 18.789 18.789v366.385c-0.723 10.117-9.394 18.066-19.512 18.066z" />
<glyph unicode="&#xe913;" glyph-name="iot" d="M641.716 633.361c-24.57 13.008-52.754 15.898-79.492 7.949-7.227-2.168-11.562-10.117-9.394-17.344s10.117-11.562 17.344-9.394c19.512 5.781 40.469 3.613 58.535-5.781s31.074-26.016 36.855-45.527c2.168-5.781 7.227-10.117 13.73-10.117 1.445 0 2.891 0 4.336 0.723 7.227 2.168 11.562 10.117 9.394 17.344-8.672 26.738-26.738 49.14-51.308 62.148zM540.545 691.173c-7.227-2.168-11.562-10.117-9.394-17.344s10.117-11.562 17.344-9.394c72.988 21.68 151.035-19.512 172.714-93.222 2.168-5.781 7.227-10.117 13.73-10.117 1.445 0 2.891 0 4.336 0.723 7.227 2.168 11.562 10.117 9.394 17.344-26.738 88.164-119.96 138.027-208.124 112.011zM836.11 554.591c3.613 38.301 1.445 150.312-144.531 208.847-161.874 64.316-267.382-52.031-295.565-88.164-21.68 8.672-68.652 20.957-111.289-13.73s-44.805-78.769-41.914-102.617c-85.273-8.672-153.203-81.66-153.203-169.824 0-93.222 75.156-166.21 170.546-166.21h521.756c93.945 0 170.546 76.601 170.546 170.546-0.723 73.711-47.695 138.027-116.347 161.152zM781.911 251.077h-521.756c-79.492 0-142.363 60.703-142.363 138.027 0 78.047 63.594 142.363 142.363 142.363 4.336 0 8.672 2.168 11.562 5.781s3.613 8.672 2.168 12.285c0 0.723-15.898 52.754 29.629 89.609 15.898 13.008 32.519 16.621 46.972 16.621 23.848 0 42.637-10.117 44.082-10.84 6.504-3.613 14.453-1.445 18.789 4.336 4.336 6.504 101.894 153.925 268.827 87.441 153.203-61.426 126.464-184.277 125.019-189.335-1.445-7.227 2.891-15.176 10.117-16.621 62.871-15.898 106.953-72.988 106.953-138.027 0-78.047-64.316-141.64-142.363-141.64z" />
<glyph unicode="&#xe914;" glyph-name="live" d="M508.025 615.294c-85.273 0-153.925-68.652-153.925-153.925s68.652-153.925 153.925-153.925 153.203 69.375 153.203 153.925-68.652 153.925-153.203 153.925zM508.025 345.022c-64.316 0-116.347 52.031-116.347 116.347s52.031 116.347 116.347 116.347 116.347-52.031 116.347-116.347-52.754-116.347-116.347-116.347zM713.982 688.282c-7.227 7.227-19.512 6.504-26.016-1.445-7.227-7.949-6.504-19.512 1.445-26.016 56.367-51.308 88.164-123.574 88.164-199.452 0-76.601-32.519-149.589-89.609-200.898-7.949-7.227-7.949-18.789-1.445-26.016 3.613-4.336 8.672-6.504 13.73-6.504 4.336 0 8.672 1.445 12.285 5.059 65.039 57.812 101.894 141.64 101.894 228.359 0 85.996-36.855 169.101-100.449 226.913zM238.476 461.369c0 75.156 31.797 147.421 87.441 198.73 7.949 7.227 7.949 18.789 1.445 26.016-7.227 7.227-18.789 7.949-26.016 1.445-62.871-57.812-99.726-140.195-99.726-226.191 0-87.441 37.578-170.546 102.617-229.081 3.613-2.891 7.949-5.059 12.285-5.059 5.059 0 10.117 2.168 13.73 6.504 6.504 7.949 6.504 19.512-1.445 26.016-57.812 52.031-90.332 125.019-90.332 201.62zM810.095 780.059c-7.227 7.227-19.512 6.504-26.016-0.723-7.227-7.227-6.504-19.512 0.723-26.016 80.937-76.601 125.019-179.941 125.019-291.229s-46.972-218.241-127.91-294.12c-7.227-7.227-7.949-18.789-0.723-26.016 3.613-3.613 8.672-5.781 13.73-5.781 4.336 0 9.394 1.445 13.008 5.059 88.164 81.66 139.472 198.73 139.472 320.135 0 122.128-49.14 234.862-137.304 318.69zM105.507 461.369c0 111.289 44.082 214.628 125.019 291.229 7.227 7.227 7.949 18.789 0.723 26.016s-18.789 7.949-26.016 0.723c-88.164-83.105-137.304-196.562-137.304-317.968 0-122.128 49.14-235.585 137.304-319.413 3.613-3.613 7.949-5.059 13.008-5.059s10.117 2.168 13.73 5.781c7.227 7.227 6.504 19.512-0.723 26.016-80.937 77.324-125.742 181.386-125.742 292.675z" />
<glyph unicode="&#xe915;" glyph-name="optimized" d="M356.991 303.831h-169.824v301.347h163.32c10.117 0 18.789 8.672 18.789 18.789s-8.672 18.789-18.789 18.789h-273.163c-10.117 0-18.789-8.672-18.789-18.789v-338.202c0-10.117 8.672-18.789 18.789-18.789h279.667c10.117 0 18.789 8.672 18.789 18.789s-7.949 18.066-18.789 18.066zM96.113 605.177h53.476v-300.624h-53.476v300.624zM679.294 522.795c-2.891 5.781-9.394 9.394-16.621 9.394h-151.035l71.543 252.929c2.168 8.672-1.445 18.066-10.117 21.68-7.949 3.613-18.066 1.445-23.125-6.504l-260.155-383.729c-3.613-5.781-4.336-13.008-0.723-19.512 2.891-5.781 9.394-10.117 16.621-10.117h158.261l-59.258-243.534c-2.168-8.672 2.168-18.066 10.84-21.68 2.168-0.723 5.059-1.445 7.227-1.445 6.504 0 12.285 2.891 15.898 8.672l240.644 373.612c2.891 6.504 2.891 14.453 0 20.234zM466.834 243.128l39.023 158.984c1.445 5.781 0 11.562-3.613 15.898s-8.672 7.227-14.453 7.227h-147.421l175.605 259.433-46.972-165.488c-1.445-5.781-0.723-11.562 2.891-16.621 3.613-4.336 8.672-7.227 15.176-7.227h141.64l-161.874-252.206zM858.512 303.831h-267.382c-10.117 0-18.789-8.672-18.789-18.789s8.672-18.789 18.789-18.789h286.171c10.117 0 18.789 8.672 18.789 18.789v99.004h70.82c10.117 0 18.789 8.672 18.789 18.789v136.582c0 10.117-8.672 18.789-18.789 18.789h-70.82v65.761c0 10.117-8.672 18.789-18.789 18.789h-279.667c-10.117 0-18.789-8.672-18.789-18.789s8.672-18.789 18.789-18.789h260.878v-301.347zM948.121 421.623h-52.031v99.004h52.031v-99.004z" />
<glyph unicode="&#xe916;" glyph-name="plus1" d="M865.739 488.107h-294.843v294.843c0 23.125-18.789 41.914-41.914 41.914s-41.914-18.789-41.914-41.914v-294.843h-175.605c-23.125 0-41.914-18.789-41.914-41.914s18.789-41.914 41.914-41.914h174.882v-294.843c0-23.125 18.789-41.914 41.914-41.914s41.914 18.789 41.914 41.914v294.843h294.843c23.125 0 41.914 18.789 41.914 41.914s-17.344 41.914-41.191 41.914zM221.855 446.193c0-23.548-19.089-42.637-42.637-42.637s-42.637 19.089-42.637 42.637c0 23.548 19.089 42.637 42.637 42.637s42.637-19.089 42.637-42.637z" />
<glyph unicode="&#xe917;" glyph-name="portable-software" d="M514.529 853.77c66.484 0 131.523-16.621 189.335-47.695l-65.039-23.848c-9.394-3.613-14.453-14.453-10.84-23.848 2.891-7.227 10.117-12.285 17.344-12.285 2.168 0 4.336 0.723 6.504 1.445l108.398 39.746c5.059 2.168 8.672 5.781 10.84 10.84s1.445 10.84-0.723 15.176l-52.031 102.617c-5.059 9.394-15.898 13.008-25.293 7.949-9.394-4.336-13.008-15.898-7.949-25.293l28.906-57.090c-61.426 31.797-130.078 48.418-199.452 48.418-241.366 0-437.928-196.562-437.928-437.928 0-87.441 26.016-172.714 75.156-244.98 3.613-5.059 9.394-7.949 15.176-7.949 3.613 0 7.227 0.723 10.117 2.891 8.672 5.781 10.84 17.344 5.059 26.016-44.805 66.484-68.652 143.808-68.652 224.023 0 221.855 179.941 401.795 401.073 401.795zM438.651 545.197c-5.059 8.672-16.621 12.285-25.293 6.504l-138.027-79.492c-5.781-3.613-9.394-9.394-9.394-15.898s3.613-13.008 9.394-15.898l138.027-79.492c2.891-1.445 5.781-2.168 9.394-2.168 6.504 0 13.008 3.613 15.898 9.394 5.059 8.672 2.168 20.234-6.504 25.293l-109.843 63.594 109.843 63.594c7.949 4.336 11.562 15.898 6.504 24.57zM588.24 367.424c3.613-5.781 9.394-9.394 15.898-9.394 2.891 0 6.504 0.723 9.394 2.168l138.027 79.492c5.781 3.613 9.394 9.394 9.394 15.898s-3.613 13.008-9.394 15.898l-138.027 79.492c-8.672 5.059-20.234 2.168-25.293-6.504s-2.168-20.234 6.504-25.293l109.843-63.594-109.843-63.594c-8.672-4.336-12.285-15.176-6.504-24.57zM883.083 684.669c-5.059 8.672-16.621 11.562-25.293 5.781-8.672-5.059-11.562-16.621-5.781-25.293 41.914-67.929 62.871-145.976 59.258-226.913-4.336-106.953-49.863-205.956-128.632-278.222s-180.663-110.566-287.616-106.23c-58.535 2.168-115.625 18.066-166.933 44.805l68.652 21.68c10.117 2.891 15.176 13.73 12.285 23.125-2.891 10.117-13.73 15.176-23.125 12.285l-111.289-34.687c-5.059-1.445-9.394-5.059-11.562-10.117s-2.168-10.117 0-15.176l48.418-104.785c2.891-6.504 10.117-10.84 16.621-10.84 2.891 0 5.059 0.723 7.949 1.445 9.394 4.336 13.73 15.176 9.394 24.57l-25.293 54.922c53.476-26.016 112.734-41.191 172.714-44.082 5.781 0 12.285-0.723 18.066-0.723 110.566 0 215.351 41.191 296.288 116.347 85.996 79.492 135.859 187.167 140.195 304.237 4.336 88.164-18.066 173.437-64.316 247.87zM544.158 599.396l-93.945-273.163c-3.613-9.394 2.168-20.234 11.562-23.848 2.168-0.723 4.336-0.723 5.781-0.723 7.949 0 15.176 5.059 17.344 12.285l93.945 273.163c3.613 9.394-2.168 20.234-11.562 23.848-9.394 2.891-20.234-2.168-23.125-11.562z" />
<glyph unicode="&#xe918;" glyph-name="secure" d="M879.469 680.333c-5.059 8.672-16.621 11.562-25.293 6.504s-11.562-16.621-6.504-25.293c37.578-62.148 57.812-134.414 57.812-207.402 0-221.132-179.941-400.35-400.35-400.35s-400.35 179.941-400.35 400.35 179.941 400.35 400.35 400.35c66.484 0 132.968-16.621 190.781-48.418 9.394-5.059 20.234-1.445 25.293 7.227 5.059 9.394 1.445 20.234-7.227 25.293-63.594 33.965-135.859 52.031-208.847 52.031-241.366 0-437.928-195.839-437.928-437.928s196.562-437.928 437.928-437.928 437.928 196.562 437.928 437.928c0 80.215-21.68 158.984-63.594 227.636zM505.135 772.833c-75.156 0-136.582-61.426-136.582-136.582v-41.914h-57.812c-10.117 0-18.789-8.672-18.789-18.789v-197.284c0-117.793 95.39-213.183 213.183-213.183s213.183 95.39 213.183 213.183v197.284c0 10.117-8.672 18.789-18.789 18.789h-57.812v41.914c0 75.156-61.426 136.582-136.582 136.582zM406.131 636.251c0 54.922 44.805 99.726 99.726 99.726s99.726-44.805 99.726-99.726v-41.914h-199.452v41.914zM681.462 378.264c0-96.836-78.769-176.327-176.327-176.327s-176.327 78.769-176.327 176.327v178.495h351.932v-178.495zM486.346 342.131v-47.695c0-10.117 8.672-18.789 18.789-18.789s18.789 8.672 18.789 18.789v47.695c32.519 8.672 56.367 37.578 56.367 72.265 0 41.191-33.965 75.156-75.156 75.156s-75.156-33.965-75.156-75.156c0-34.687 24.57-64.316 56.367-72.265zM505.135 452.697c20.957 0 37.578-17.344 37.578-37.578 0-20.957-17.344-37.578-37.578-37.578s-37.578 17.344-37.578 37.578c0 20.234 16.621 37.578 37.578 37.578z" />
<glyph unicode="&#xe919;" glyph-name="smarthome" d="M449.49 282.151c-5.781-5.781-5.781-14.453 0-20.234s14.453-5.781 20.234 0c28.183 28.183 74.433 28.183 103.339 0 2.891-2.891 6.504-4.336 10.117-4.336s7.227 1.445 10.117 4.336c5.781 5.781 5.781 14.453 0 20.234-40.469 39.746-104.062 39.746-143.808 0zM333.866 378.264c5.781-5.781 14.453-5.781 20.234 0 92.5 92.5 242.089 92.5 334.589 0 2.891-2.891 6.504-4.336 10.117-4.336s7.227 1.445 10.117 4.336c5.781 5.781 5.781 14.453 0 20.234-51.308 49.863-117.793 77.324-187.89 77.324-70.82 0-137.304-27.461-187.167-77.324-5.781-5.781-5.781-14.453 0-20.234zM393.124 339.241c-5.781-5.781-5.781-14.453 0-20.234s14.453-5.781 20.234 0c60.703 60.703 158.984 60.703 218.964 0 2.891-2.891 6.504-4.336 10.117-4.336s7.227 1.445 10.117 4.336c5.781 5.781 5.781 14.453 0 20.234-72.265 70.82-188.613 70.82-259.433 0zM844.782 504.006l-319.413 228.359c-5.059 3.613-11.562 3.613-16.621 0l-316.522-228.359c-3.613-2.891-5.781-7.227-5.781-11.562v-372.167c0-7.949 6.504-13.73 13.73-13.73h635.212c7.949 0 13.73 6.504 13.73 13.73v372.167c1.445 4.336-0.723 8.672-4.336 11.562zM822.38 134.73h-607.029v350.487l302.069 218.241 304.96-218.241v-350.487zM916.325 519.904l-389.51 294.12c-5.059 3.613-12.285 3.613-16.621 0l-142.363-107.675v31.797c0 7.949-6.504 13.73-13.73 13.73h-93.945c-7.949 0-13.73-6.504-13.73-13.73v-124.296l-125.019-93.945c-6.504-4.336-7.227-13.73-2.891-19.512 4.336-6.504 13.73-7.227 19.512-2.891l130.8 98.281c3.613 2.891 5.781 6.504 5.781 11.562v117.070h65.039v-46.25c0-5.059 2.891-10.117 7.949-12.285s10.84-2.168 14.453 1.445l156.816 117.793 380.838-287.616c2.891-2.168 5.781-2.891 8.672-2.891 4.336 0 8.672 2.168 11.562 5.781 4.336 6.504 2.891 15.176-3.613 19.512z" />
<glyph unicode="&#xe91a;" glyph-name="videos" d="M896.813 670.216c-5.059 8.672-16.621 11.562-25.293 6.504s-11.562-16.621-6.504-25.293c37.578-62.148 57.812-134.414 57.812-208.124 0-221.132-179.941-400.35-400.35-400.35s-400.35 179.941-400.35 400.35 179.941 400.35 400.35 400.35c66.484 0 132.968-16.621 190.781-48.418 9.394-5.059 20.234-1.445 25.293 7.227 5.059 9.394 1.445 20.234-7.227 25.293-63.594 34.687-135.859 52.754-208.847 52.754-241.366 0-437.928-196.562-437.928-437.928s196.562-437.928 437.928-437.928 437.928 196.562 437.928 437.928c0 80.937-22.402 159.706-63.594 227.636zM407.577 658.653c-5.781-2.891-10.117-9.394-10.117-16.621v-397.459c0-7.227 3.613-13.008 10.117-16.621 2.891-1.445 5.781-2.168 8.672-2.168 3.613 0 7.227 0.723 10.117 2.891l298.456 198.73c5.059 3.613 7.949 9.394 7.949 15.176s-2.891 12.285-7.949 15.176l-297.733 200.175c-5.781 3.613-13.008 3.613-19.512 0.723zM435.037 607.345l245.702-164.042-245.702-164.042v328.085z" />
<glyph unicode="&#xe91b;" glyph-name="wearables" d="M462.498 409.338c5.781-10.117 17.344-16.621 28.906-16.621h44.805c12.285 0 23.125 6.504 28.906 16.621l22.402 38.301c5.781 10.117 5.781 23.125 0 33.965l-22.402 38.301c-5.781 10.117-17.344 16.621-28.906 16.621h-44.805c-12.285 0-23.125-6.504-28.906-16.621l-22.402-38.301c-5.781-10.117-5.781-23.125 0-33.242l22.402-39.023zM464.666 467.873l22.402 38.301c0.723 1.445 2.891 2.891 5.059 2.891h44.805c2.168 0 3.613-0.723 5.059-2.891l22.402-38.301c0.723-1.445 0.723-3.613 0-5.781l-22.402-38.301c-0.723-1.445-2.891-2.891-5.059-2.891h-45.527c-2.168 0-3.613 0.723-5.059 2.891l-22.402 38.301c-0.723 2.168-0.723 3.613 0.723 5.781zM708.923 740.313l-6.504 83.828c-2.891 35.41-32.519 63.594-68.652 63.594h-240.644c-36.133 0-65.761-28.183-68.652-63.594l-6.504-83.828c-51.308-1.445-93.222-44.082-93.222-95.39v-380.838c0-52.031 41.191-93.945 93.222-95.39l6.504-83.828c2.891-35.41 32.519-63.594 68.652-63.594h240.644c36.133 0 65.761 28.183 68.652 63.594l6.504 83.828c51.308 1.445 93.222 44.082 93.222 95.39v380.838c0 52.031-41.914 93.945-93.222 95.39zM393.124 860.274h240.644c20.957 0 39.023-16.621 40.469-37.578l5.781-81.66h-333.143l5.781 81.66c1.445 20.957 19.512 37.578 40.469 37.578zM633.767 48.734h-240.644c-20.957 0-39.023 16.621-40.469 37.578l-5.781 81.66h333.866l-5.781-81.66c-2.168-20.957-19.512-37.578-41.191-37.578zM773.962 264.085c0-37.578-30.351-67.929-67.929-67.929h-384.452c-37.578 0-67.929 30.351-67.929 67.929v380.838c0 37.578 30.351 67.929 67.929 67.929h384.452c37.578 0 67.929-30.351 67.929-67.929v-380.838zM721.931 679.61h-416.248c-7.949 0-13.73-6.504-13.73-13.73v-417.694c0-7.949 6.504-13.73 13.73-13.73h416.248c7.949 0 13.73 6.504 13.73 13.73v417.694c0 7.227-5.781 13.73-13.73 13.73zM708.2 261.917h-388.788v389.51h388.788v-389.51z" />
<glyph unicode="&#xe91c;" glyph-name="caret" d="M316 604.667l196-196 196 196 60-60-256-256-256 256z" />
<glyph unicode="&#xe91d;" glyph-name="pdf" d="M146.699 27.054c-14.453 0-27.461 5.781-37.578 16.621-15.176 15.898-20.234 37.578-14.453 59.258 13.008 50.586 87.441 109.843 204.511 164.765 31.797 55.644 66.484 122.851 101.171 202.343 20.234 46.25 37.578 88.886 50.586 127.91-44.082 105.507-65.761 215.351-37.578 268.827 13.008 23.848 34.687 36.855 62.148 36.855 23.848 0 44.082-10.84 57.090-30.351 34.687-53.476 8.672-170.546-26.016-273.886 18.789-41.914 41.191-83.828 67.929-122.128 24.57-35.41 57.090-65.761 93.222-91.054 132.968 23.125 239.198 15.176 279.667-25.293 17.344-16.621 23.125-38.301 15.898-61.426-4.336-13.73-17.344-38.301-59.98-44.805-62.148-10.117-161.152 20.957-247.147 76.601-44.805-8.672-94.668-21.68-149.589-39.023-65.039-20.957-122.851-43.359-171.992-65.761-59.98-101.894-126.464-190.058-177.773-198.73-3.613-0.723-6.504-0.723-10.117-0.723zM244.257 179.534c-59.258-35.41-93.945-67.929-99.726-90.332-1.445-5.781 0-7.949 2.168-10.84 13.73-1.445 49.863 32.519 97.558 101.171zM482.010 532.189c-12.285-32.519-24.57-60.703-33.965-83.105-18.789-43.359-44.082-95.39-71.543-148.144 35.41 14.453 73.711 28.183 114.902 41.191 37.578 12.285 75.156 22.402 110.566 31.074-26.738 22.402-50.586 48.418-69.375 75.156-18.789 25.293-35.41 53.476-50.586 83.828zM738.552 344.299c60.703-29.629 120.683-43.359 156.093-38.301 7.949 1.445 17.344 4.336 18.789 8.672 1.445 3.613 0.723 5.781-2.891 9.394-18.066 18.066-78.047 29.629-171.992 20.234zM475.506 852.325c-7.949 0-12.285-2.168-15.898-9.394-13.73-26.738-6.504-90.332 17.344-164.042 24.57 88.886 26.016 146.699 12.285 166.933-2.891 3.613-6.504 6.504-13.73 6.504z" />
<glyph unicode="&#xe91e;" glyph-name="quote" d="M1024 64v384h-256c0 141.12 114.752 256 256 256v128c-211.744 0-384-172.256-384-384v-384h384zM384 64v384h-256c0 141.12 114.752 256 256 256v128c-211.744 0-384-172.256-384-384v-384h384z" />
<glyph unicode="&#xe91f;" glyph-name="cloud" horiz-adv-x="1134" d="M896.62 205.648h-160.465c-11.42 0-20.679 9.258-20.679 20.679v0c0 11.42 9.258 20.679 20.679 20.679v0h160.465c56.106 4.92 105.493 30.299 141.33 68.533l0.111 0.12c34.586 37.452 55.796 87.705 55.796 142.913 0 7.931-0.438 15.761-1.291 23.465l0.085-0.949c-16.628 102.821-101.029 181.569-205.208 189.37l-0.75 0.045c-8.673 0.079-15.953 5.95-18.165 13.928l-0.032 0.134c-31.282 88.134-93.532 158.708-173.363 200.057l-1.991 0.938c-42.758 20.126-92.868 31.873-145.723 31.873-91.319 0-174.448-35.068-236.655-92.472l0.238 0.217c-53.017-57.952-90.116-131.298-103.873-212.582l-0.346-2.475c-1.2-8.989-7.807-16.154-16.397-18.168l-0.146-0.029c-55.949-9.751-102.359-43.914-128.561-90.888l-0.473-0.924c-12.336-23.955-19.568-52.276-19.568-82.286 0-40.605 13.239-78.117 35.636-108.457l-0.353 0.5c32.36-37.783 80.116-61.574 133.429-61.574 3.983 0 7.935 0.133 11.852 0.394l-0.531-0.028h165.428v-41.357h-165.428c-3.415-0.192-7.41-0.302-11.431-0.302-67.164 0-127.191 30.554-166.941 78.52l-0.29 0.36c-26.791 36.484-42.872 82.284-42.872 131.84 0 37.327 9.124 72.523 25.263 103.48l-0.588-1.24c29.861 53.625 79.62 93.126 139.051 108.831l1.563 0.351c17.275 88.919 58.242 166.307 116.017 227.697l-0.218-0.233c69.34 64.093 162.412 103.403 264.664 103.403 59.749 0 116.363-13.422 166.992-37.415l-2.37 1.011c88.31-44.547 156.259-118.662 191.796-209.070l0.927-2.678c119.838-14.589 214.046-107.951 229.799-226.12l0.147-1.344c0.806-7.595 1.266-16.406 1.266-25.325 0-134.577-104.689-244.703-237.070-253.381l-0.758-0.040zM496.284 96.465v336.646c0 11.42-9.258 20.679-20.679 20.679v0c-11.42 0-20.679-9.258-20.679-20.679v0-336.646c-35.98-9.497-62.077-41.75-62.077-80.098 0-0.92 0.015-1.836 0.045-2.749l-0.003 0.133c0-45.682 37.032-82.714 82.714-82.714s82.714 37.032 82.714 82.714v0c0.026 0.78 0.041 1.696 0.041 2.616 0 38.348-26.097 70.601-61.5 79.968l-0.577 0.13zM475.606-22.643c-0.244-0.005-0.531-0.008-0.819-0.008-22.841 0-41.357 18.516-41.357 41.357s18.516 41.357 41.357 41.357c22.841 0 41.357-18.516 41.357-41.357 0-0.288-0.003-0.575-0.009-0.862l0.001 0.043c0-0.003 0-0.005 0-0.008 0-22.384-18.146-40.53-40.53-40.53-0.291 0-0.581 0.003-0.87 0.009l0.043-0.001zM748.562 428.976c0 45.682-37.032 82.714-82.714 82.714s-82.714-37.032-82.714-82.714v0c0.985-37.167 26.342-68.151 60.627-77.614l0.581-0.137v-336.646c0-11.42 9.258-20.679 20.679-20.679s20.679 9.258 20.679 20.679v0 336.646c35.564 8.991 61.665 40.162 62.859 77.621l0.003 0.13zM665.848 388.446c-22.841 0-41.357 18.516-41.357 41.357s18.516 41.357 41.357 41.357v0c22.841 0 41.357-18.516 41.357-41.357s-18.516-41.357-41.357-41.357v0z" />
<glyph unicode="&#xe920;" glyph-name="value" horiz-adv-x="851" d="M481.505 919.875h-220.69c-11.080 0-20.063 8.982-20.063 20.063v0c0 11.080 8.982 20.063 20.063 20.063v0h220.69c11.080 0 20.063-8.982 20.063-20.063v0c0-11.080-8.982-20.063-20.063-20.063v0zM167.724 752.15h-31.298c-11.080 0-20.063 8.982-20.063 20.063s8.982 20.063 20.063 20.063v0h31.298c11.080 0 20.063-8.982 20.063-20.063s-8.982-20.063-20.063-20.063v0zM578.608 752.15h-308.966c-11.080 0-20.063 8.982-20.063 20.063s8.982 20.063 20.063 20.063v0h308.966c11.080 0 20.063-8.982 20.063-20.063s-8.982-20.063-20.063-20.063v0zM167.724 638.997h-31.298c-11.080 0-20.063 8.982-20.063 20.063v0c0 11.080 8.982 20.063 20.063 20.063v0h31.298c11.080 0 20.063-8.982 20.063-20.063v0c0-11.080-8.982-20.063-20.063-20.063v0zM578.608 638.997h-308.966c-11.080 0-20.063 8.982-20.063 20.063v0c0 11.080 8.982 20.063 20.063 20.063v0h308.966c11.080 0 20.063-8.982 20.063-20.063v0c0-11.080-8.982-20.063-20.063-20.063v0zM167.724 525.041h-31.298c-11.080 0-20.063 8.982-20.063 20.063s8.982 20.063 20.063 20.063v0h31.298c11.080 0 20.063-8.982 20.063-20.063s-8.982-20.063-20.063-20.063v0zM578.608 525.041h-308.966c-11.080 0-20.063 8.982-20.063 20.063s8.982 20.063 20.063 20.063v0h308.966c11.080 0 20.063-8.982 20.063-20.063s-8.982-20.063-20.063-20.063v0zM167.724 409.48h-31.298c-11.080 0-20.063 8.982-20.063 20.063s8.982 20.063 20.063 20.063v0h31.298c11.080 0 20.063-8.982 20.063-20.063s-8.982-20.063-20.063-20.063v0zM578.608 409.48h-308.966c-11.080 0-20.063 8.982-20.063 20.063s8.982 20.063 20.063 20.063v0h308.966c11.080 0 20.063-8.982 20.063-20.063s-8.982-20.063-20.063-20.063v0zM613.918 77.241c-5.673 0.262-10.737 2.667-14.443 6.418l-0.002 0.002-65.003 69.818c-3.746 3.522-6.080 8.511-6.080 14.044s2.333 10.522 6.070 14.035l0.010 0.009c3.616 3.546 8.574 5.735 14.044 5.735s10.428-2.189 14.047-5.738l-0.003 0.003 52.163-55.373 95.498 87.473c3.616 3.546 8.574 5.735 14.044 5.735s10.428-2.189 14.047-5.738l-0.003 0.003c3.595-3.743 5.809-8.835 5.809-14.445s-2.214-10.702-5.816-14.452l0.007 0.007-110.746-101.918c-3.233-3.469-7.828-5.632-12.929-5.632-0.251 0-0.501 0.005-0.75 0.016l0.036-0.001zM738.307 340.464v599.473c0.003 0.12 0.004 0.262 0.004 0.405 0 9.661-6.829 17.728-15.924 19.635l-0.131 0.023h-150.871c-11.080 0-20.063-8.982-20.063-20.063v0c0-11.080 8.982-20.063 20.063-20.063v0h126.796v-561.755c-18.419 5.771-39.63 9.265-61.602 9.628l-0.191 0.002c-119.224 0-215.875-96.65-215.875-215.875v0c0.49-32.391 7.832-62.947 20.635-90.448l-0.572 1.369h-400.451v857.078h131.611c11.080 0 20.063 8.982 20.063 20.063v0c0 11.080-8.982 20.063-20.063 20.063v0h-151.674c-11.080 0-20.063-8.982-20.063-20.063v0-898.006c0-11.080 8.982-20.063 20.063-20.063v0h439.774c39.743-49.671 100.356-81.21 168.336-81.21 118.781 0 215.072 96.291 215.072 215.072 0 78.128-41.659 146.526-103.975 184.193l-0.962 0.54zM636.389-23.875c-0.238-0.001-0.519-0.002-0.801-0.002-97.064 0-175.749 78.686-175.749 175.749s78.686 175.749 175.749 175.749c97.064 0 175.749-78.686 175.749-175.749 0-0.282-0.001-0.563-0.002-0.844v0.044c-0.453-96.437-78.509-174.493-174.903-174.947h-0.044z" />
<glyph unicode="&#xe921;" glyph-name="sun" horiz-adv-x="898" d="M826.851 281.747c-19.105-0.267-36.406-7.776-49.327-19.899l0.040 0.037-115.494 75.77c-2.708 1.657-5.985 2.639-9.492 2.639-6.495 0-12.204-3.367-15.476-8.451l-0.044-0.073c-1.828-2.879-2.913-6.386-2.913-10.146 0-6.415 3.158-12.092 8.004-15.562l0.058-0.039 119.172-73.563c-1.877-6.045-3.187-13.069-3.664-20.32l-0.015-0.277c0-40.628 32.935-73.563 73.563-73.563s73.563 32.935 73.563 73.563c0 40.628-32.935 73.563-73.563 73.563v0zM826.851 174.345c-0.219-0.005-0.477-0.008-0.736-0.008-19.501 0-35.31 15.809-35.31 35.31s15.809 35.31 35.31 35.31c19.499 0 35.306-15.805 35.31-35.302v0c0-0.002 0-0.005 0-0.008 0-19.243-15.392-34.89-34.536-35.302l-0.038-0.001zM525.977 886.437c1.169 4.911 1.839 10.55 1.839 16.346 0 40.628-32.935 73.563-73.563 73.563s-73.563-32.935-73.563-73.563c0-5.796 0.67-11.435 1.937-16.844l-0.098 0.498c1.436-32.27 23.455-59.028 53.182-67.551l0.519-0.127v-121.379c0-10.157 8.234-18.391 18.391-18.391v0c10.157 0 18.391 8.234 18.391 18.391v0 122.851c29.496 8.741 50.998 34.719 52.955 65.996l0.011 0.211zM452.414 851.126c-18.528 1.196-33.104 16.516-33.104 35.241 0 0.024 0 0.049 0 0.073v-0.004c0 19.501 15.809 35.31 35.31 35.31s35.31-15.809 35.31-35.31c0-19.501-15.809-35.31-35.31-35.31v0zM281.747 331.77c-3.474 5.201-9.321 8.581-15.957 8.581-3.614 0-6.993-1.002-9.876-2.744l0.086 0.048-118.437-73.563c-12.705 11.927-29.713 19.401-48.461 19.86l-0.091 0.002c-40.628 0-73.563-32.935-73.563-73.563s32.935-73.563 73.563-73.563c40.628 0 73.563 32.935 73.563 73.563v0c-0.368 7.501-1.955 14.528-4.568 21.033l0.155-0.436 119.172 73.563c5.011 3.498 8.248 9.237 8.248 15.731 0 4.332-1.44 8.328-3.869 11.535l0.035-0.048zM89.011 174.345c-20.314 0-36.782 16.468-36.782 36.782s16.468 36.782 36.782 36.782v0c20.314 0 36.782-16.468 36.782-36.782s-16.468-36.782-36.782-36.782v0zM826.851 759.172c-40.628 0-73.563-32.935-73.563-73.563v0c0.361-8.016 1.949-15.551 4.58-22.577l-0.167 0.508-150.069-97.103c-34.582 49.487-91.282 81.454-155.448 81.454-65.726 0-123.619-33.54-157.497-84.438l-0.434-0.694-155.218 102.989c3.909 6.106 6.745 13.29 8.045 20.996l0.047 0.337c0 40.628-32.935 73.563-73.563 73.563s-73.563-32.935-73.563-73.563c0-40.628 32.935-73.563 73.563-73.563v0c18.215 0.624 34.649 7.777 47.138 19.178l-0.057-0.052 158.897-102.253c-9.463-21.683-15.112-46.919-15.447-73.436l-0.001-0.127c0-0.026 0-0.057 0-0.087 0-98.603 75.193-179.644 171.367-188.91l0.771-0.060v-190.529c-30.246-8.65-52.265-35.408-53.696-67.521l-0.006-0.157c0-40.628 32.935-73.563 73.563-73.563s73.563 32.935 73.563 73.563v0c-1.914 33.206-25.584 60.38-56.884 67.582l-0.495 0.096v190.529c96.766 8.644 172.047 89.339 172.047 187.617 0 28.825-6.476 56.137-18.052 80.561l0.488-1.143 152.276 99.31c12.611-11.503 29.334-18.69 47.729-19.125l0.087-0.002c40.628 0 73.563 32.935 73.563 73.563s-32.935 73.563-73.563 73.563v0zM73.563 651.77c-0.439-0.020-0.954-0.031-1.471-0.031-19.501 0-35.31 15.809-35.31 35.31 0 0.011 0 0.022 0 0.032v-0.002c-0.006 0.24-0.009 0.523-0.009 0.807 0 19.095 15.48 34.575 34.575 34.575 0.78 0 1.554-0.026 2.32-0.077l-0.104 0.006c19.501 0 35.31-15.809 35.31-35.31v0c-0.403-19.337-15.973-34.907-35.272-35.31l-0.038-0.001zM490.667 8.092c0.005-0.217 0.008-0.472 0.008-0.728 0-19.501-15.809-35.31-35.31-35.31s-35.31 15.809-35.31 35.31c0 19.501 15.809 35.31 35.31 35.31 0.256 0 0.511-0.003 0.766-0.008l-0.038 0.001c18.451-0.81 33.103-15.966 33.103-34.543 0-0.011 0-0.022 0-0.033v0.002zM456.092 302.345c-0.656-0.010-1.431-0.016-2.207-0.016-84.912 0-153.747 68.835-153.747 153.747s68.835 153.747 153.747 153.747c84.907 0 153.738-68.826 153.747-153.73v-0.001c-0.411-84.488-68.583-152.918-152.933-153.747l-0.079-0.001zM828.322 651.77c-19.501 0-35.31 15.809-35.31 35.31v0c0 19.501 15.809 35.31 35.31 35.31s35.31-15.809 35.31-35.31c0-19.501-15.809-35.31-35.31-35.31v0z" />
<glyph unicode="&#xe922;" glyph-name="play" d="M192 832l640-384-640-384z" />
<glyph unicode="&#xe923;" glyph-name="supply-chain" d="M975.831 190.841l-1.837 0.387c-29.389 6.767-59.841 13.824-66.415 28.132-2.61 5.704-1.547 12.858 3.287 22.042 33.932 64.094 40.409 119.682 18.175 156.611-14.888 24.748-42.15 38.959-74.729 38.959s-60.228-14.404-75.212-39.636c-22.235-37.316-15.564-92.806 18.658-156.031 4.93-9.087 6.090-16.241 3.48-21.848-6.477-14.308-36.446-21.268-65.545-27.939l-2.804-0.677c-45.243-10.441-48.433-34.609-48.337-73.085v-7.444c0-1.547 0.58-2.997 1.547-4.157 1.45-1.837 1.933-2.514 2.707-3.674 1.16-1.643 2.514-3.674 4.64-5.994l0.677-0.773c42.923-42.923 99.96-66.511 160.671-66.511s112.625 21.752 154.291 60.808l0.483 0.387c4.737 3.384 9.087 8.314 13.341 15.081 0.677 1.063 1.063 2.32 1.063 3.577v8.314c0.193 38.766-2.997 63.031-48.24 73.472zM825.794 208.436c6.187 13.631 4.64 29.002-4.35 45.63-29.195 53.847-36.253 101.12-19.238 129.639 10.151 17.111 28.712 26.585 52.204 26.585s41.666-9.281 51.817-26.005c17.208-28.519 10.441-74.825-18.948-130.316-8.894-16.725-10.247-32.096-4.060-45.63 12.761-27.842 58.101-37.413 79.949-42.053 2.514-0.483 4.737-0.967 6.574-1.45 25.522-5.897 27.552-12.084 27.552-44.083 0-2.32 0-4.447 0-6.38l-0.193-0.193c-37.993-37.993-88.553-58.971-142.303-58.971s-104.311 20.978-142.303 58.971c-0.193 0.193-0.387 0.387-0.58 0.58l-0.193 4.447c-0.097 2.223-0.193 4.157-0.29 5.317 0.193 28.519 2.417 34.609 27.552 40.506l5.414 1.16c20.591 4.35 68.831 14.598 81.399 42.536zM1001.159 111.086v0zM403.427 681.942h-24.555c-8.314 0-15.081-6.767-15.081-15.081s6.767-15.081 15.081-15.081h24.555s0.58 0 0.87 0v-7.541c0-11.697 9.474-21.171 21.171-21.171h8.314c0-0.483-0.193-1.063-0.193-1.547v-24.555c0-8.314 6.767-15.081 15.081-15.081s15.081 6.767 15.081 15.081v24.555c0 0.58-0.097 1.063-0.193 1.547h28.905c0-0.483-0.193-1.063-0.193-1.547v-24.555c0-8.314 6.767-15.081 15.081-15.081s15.081 6.767 15.081 15.081v24.555c0 0.58-0.097 1.063-0.193 1.547h28.905c0-0.483-0.193-1.063-0.193-1.547v-24.555c0-8.314 6.767-15.081 15.081-15.081s15.081 6.767 15.081 15.081v24.555c0 0.58-0.097 1.063-0.193 1.547h28.905c0-0.483-0.193-1.063-0.193-1.547v-24.555c0-8.314 6.767-15.081 15.081-15.081s15.081 6.767 15.081 15.081v24.555c0 0.58-0.097 1.063-0.193 1.547h9.861c11.697 0 21.171 9.474 21.171 21.171v7.637c0.58 0 1.16-0.193 1.74-0.193h24.555c8.314 0 15.081 6.767 15.081 15.081s-6.767 15.081-15.081 15.081h-24.555c-0.58 0-1.16-0.097-1.74-0.193v28.905c0.58 0 1.16-0.193 1.74-0.193h24.555c8.314 0 15.081 6.767 15.081 15.081s-6.767 15.081-15.081 15.081h-24.555c-0.58 0-1.16-0.097-1.74-0.193v28.905c0.58 0 1.16-0.193 1.74-0.193h24.555c8.314 0 15.081 6.767 15.081 15.081s-6.767 15.081-15.081 15.081h-24.555c-0.58 0-1.16-0.097-1.74-0.193v28.905c0.58 0 1.16-0.193 1.74-0.193h24.555c8.314 0 15.081 6.767 15.081 15.081s-6.767 15.081-15.081 15.081h-24.555c-0.58 0-1.16-0.097-1.74-0.193v10.537c0 11.697-9.474 21.171-21.171 21.171h-9.764s0.097 0.677 0.097 0.967v24.555c0 8.314-6.767 15.081-15.081 15.081s-15.081-6.767-15.081-15.081v-24.555s0-0.677 0.097-0.967h-28.712s0.097 0.677 0.097 0.967v24.555c0 8.314-6.767 15.081-15.081 15.081s-15.081-6.767-15.081-15.081v-24.555s0-0.677 0.097-0.967h-28.712s0.097 0.677 0.097 0.967v24.555c0 8.314-6.767 15.081-15.081 15.081s-15.081-6.767-15.081-15.081v-24.555s0-0.677 0.097-0.967h-28.712s0.097 0.677 0.097 0.967v24.555c0 8.314-6.767 15.081-15.081 15.081s-15.081-6.767-15.081-15.081v-24.555s0-0.677 0.097-0.967h-8.217c-11.697 0-21.171-9.474-21.171-21.171v-10.441s-0.58 0-0.87 0h-24.555c-8.314 0-15.081-6.767-15.081-15.081s6.767-15.081 15.081-15.081h24.555s0.58 0 0.87 0v-28.712s-0.58 0-0.87 0h-24.555c-8.314 0-15.081-6.767-15.081-15.081s6.767-15.081 15.081-15.081h24.555s0.58 0 0.87 0v-28.712s-0.58 0-0.87 0h-24.555c-8.314 0-15.081-6.767-15.081-15.081s6.767-15.081 15.081-15.081h24.555s0.58 0 0.87 0v-28.712s-0.58 0-0.87 0zM640.471 653.327h-206.011v206.108h206.011v-206.011zM92.332 275.817c-8.701 0-15.758-7.057-15.758-15.758v-8.024c0-8.701 7.057-15.758 15.758-15.758s15.758 7.057 15.758 15.758v8.024c0 8.701-7.057 15.758-15.758 15.758zM384.673 84.694h-6.284v273.586c0 4.834-2.223 9.377-5.994 12.374s-8.797 4.060-13.438 2.9l-26.585-6.477v43.213c0 8.701-7.057 15.758-15.758 15.758s-15.758-7.057-15.758-15.758v-50.947l-82.076-20.205v19.141c0 4.834-2.223 9.377-5.994 12.374s-8.797 4.060-13.438 2.9l-29.099-7.154v43.793c0 8.701-7.057 15.758-15.758 15.758s-15.758-7.057-15.758-15.758v-51.527l-98.994-24.362c-7.057-1.74-11.988-8.024-11.988-15.274v-234.336h-11.988c-8.701 0-15.758-7.057-15.758-15.758s7.057-15.758 15.758-15.758h368.906c8.701 0 15.758 7.057 15.758 15.758s-7.057 15.758-15.758 15.758zM59.27 306.753l128.092 31.516v-171.885c0-8.701 7.057-15.758 15.758-15.758s15.758 7.057 15.758 15.758v140.37l128.092 31.516v-253.478h-287.7v222.059zM123.171 448.283c0.677 0 1.353-0.097 2.030-0.097 7.831 0 14.598 5.8 15.564 13.728 13.534 105.664 67.478 200.211 151.874 266.142 6.864 5.317 8.024 15.178 2.707 22.042s-15.178 8.024-22.042 2.707c-90.97-71.055-149.070-173.045-163.668-286.927-1.063-8.604 5.027-16.531 13.631-17.595zM940.255 461.817c0.967-7.927 7.734-13.728 15.564-13.728 0.677 0 1.353 0 2.030 0.097 8.604 1.063 14.694 8.991 13.631 17.595-11.504 90.196-50.464 173.239-112.625 240.040-5.897 6.38-15.854 6.767-22.235 0.773-6.38-5.897-6.767-15.854-0.773-22.235 57.617-62.064 93.773-139.016 104.407-222.639zM694.898 28.14c-49.013-20.301-100.927-30.645-154.387-30.645-40.893 0-81.206 6.090-119.875 18.078-8.314 2.514-17.111-2.030-19.721-10.344s2.030-17.111 10.344-19.721c41.666-12.954 85.169-19.528 129.156-19.528 57.617 0 113.688 11.117 166.472 33.062 8.024 3.287 11.794 12.568 8.507 20.495-3.287 8.024-12.568 11.794-20.495 8.507z" />
</font>
</defs>
</svg>
