<?xml version="1.0" standalone="no"?>
<!DOCTYPE svg PUBLIC "-//W3C//DTD SVG 20010904//EN"
 "http://www.w3.org/TR/2001/REC-SVG-20010904/DTD/svg10.dtd">
<svg version="1.0" xmlns="http://www.w3.org/2000/svg"
 width="198.000000pt" height="198.000000pt" viewBox="0 0 198.000000 198.000000"
 preserveAspectRatio="xMidYMid meet">
<metadata>
Created by potrace 1.11, written by Peter Selinger 2001-2013
</metadata>
<g transform="translate(0.000000,198.000000) scale(0.100000,-0.100000)"
fill="#000000" stroke="none">
<path d="M866 1940 c-292 -53 -534 -274 -612 -560 -13 -46 -18 -105 -19 -201
-1 -124 -4 -139 -23 -164 -29 -37 -36 -66 -29 -130 5 -52 5 -53 -42 -99 -26
-26 -52 -46 -57 -45 -42 8 -84 -29 -84 -73 0 -27 38 -78 58 -78 4 0 18 -24 31
-54 l22 -54 -25 -37 c-44 -65 -46 -129 -5 -187 41 -57 107 -21 68 38 -26 40
-24 80 6 109 50 51 135 11 135 -64 0 -19 18 -31 45 -31 42 0 34 95 -12 145
-29 30 -80 55 -115 55 -18 0 -27 11 -44 53 -31 76 -23 114 36 172 44 43 51 46
76 38 24 -8 35 -25 71 -111 174 -425 452 -675 702 -634 159 27 309 146 450
359 47 72 131 239 163 325 29 82 53 87 118 23 59 -58 66 -94 36 -172 -18 -46
-25 -53 -49 -53 -42 0 -102 -35 -125 -72 -28 -47 -35 -94 -16 -113 29 -29 55
-15 68 38 16 66 85 88 131 42 30 -29 32 -69 6 -109 -25 -38 -12 -69 27 -64 19
2 33 14 49 43 35 62 28 132 -19 182 l-21 22 23 56 c15 37 31 60 46 65 43 17
57 76 29 117 -9 13 -31 25 -53 29 -24 4 -52 20 -78 46 l-41 39 4 67 c4 57 1
72 -19 102 -20 32 -23 47 -24 175 -1 112 -6 155 -23 215 -44 148 -131 282
-253 386 -62 53 -207 127 -293 150 -71 18 -250 27 -319 14z m320 -280 c226
-57 395 -212 435 -400 27 -128 -25 -277 -134 -384 -153 -150 -411 -218 -648
-172 -167 33 -330 135 -410 258 -174 270 2 602 371 697 105 28 279 28 386 1z"/>
<path d="M560 1372 c-49 -50 -62 -130 -31 -198 33 -72 85 -92 135 -53 75 59
76 198 1 257 -37 30 -71 28 -105 -6z"/>
<path d="M1332 1384 c-71 -49 -77 -190 -12 -256 69 -69 160 0 160 122 0 109
-80 182 -148 134z"/>
<path d="M723 935 c-9 -26 26 -51 104 -75 95 -29 185 -35 269 -17 92 20 177
62 172 85 -5 22 -26 20 -113 -12 -100 -36 -227 -36 -322 0 -102 38 -102 38
-110 19z"/>
</g>
</svg>
