<svg width="109" height="26" viewBox="0 0 109 26" fill="none" xmlns="http://www.w3.org/2000/svg">
<path d="M51.5498 25.4346C51.5498 25.4174 51.5326 25.4003 51.5326 25.4003C51.5326 21.1097 51.4298 16.8019 51.584 12.5285C51.6869 9.40495 54.4126 6.02397 58.6812 6.62465C60.7212 6.91641 62.4012 7.79169 63.4469 9.64523C65.3497 13.0434 64.0469 18.3465 59.4012 19.4449C57.824 19.8225 56.3155 19.5307 54.9098 18.7241C54.3955 18.4152 53.9669 18.0033 53.5726 17.3683C53.5726 20.1314 53.5726 22.7916 53.5726 25.4518C52.904 25.4346 52.2183 25.4346 51.5498 25.4346ZM57.704 8.78711C57.0183 8.75278 56.3326 8.89008 55.6983 9.23333C53.8126 10.2631 53.4355 12.8374 53.8298 14.4507C54.344 16.5102 56.384 17.7802 58.5269 17.4884C60.2583 17.2481 61.4583 16.3729 61.9383 14.6051C62.1098 13.9701 62.1612 13.3008 62.1269 12.6486C62.024 10.8123 61.0469 9.50793 59.4012 9.01022C58.8698 8.8386 58.304 8.76995 57.704 8.78711Z" fill="#E33528"/>
<path d="M0 18.9816C0.360001 18.4152 0.514287 17.763 0.754287 17.1452C2.62286 12.2882 4.47429 7.41413 6.32573 2.55719C6.44573 2.24826 6.58287 2.14529 6.90859 2.16245C7.45716 2.19678 8.00573 2.17962 8.5543 2.16245C8.74288 2.16245 8.86288 2.21394 8.93145 2.41989C11.0229 7.94617 13.1143 13.4724 15.2057 18.9987C15.2229 19.0331 15.2229 19.0845 15.2229 19.1532C14.6057 19.1532 14.0057 19.1532 13.4057 19.1532C13.1829 19.1532 13.1657 18.9987 13.1143 18.8443C12.7029 17.7115 12.2743 16.596 11.88 15.4633C11.7772 15.1715 11.6229 15.0857 11.3315 15.0857C8.89716 15.1029 6.48001 15.1029 4.04572 15.0857C3.73715 15.0857 3.60001 15.1887 3.49715 15.4804C3.12001 16.5788 2.69143 17.6601 2.31429 18.7413C2.19429 19.0845 2.04 19.1703 1.69715 19.1532C1.13143 19.1189 0.565715 19.1532 0 19.1532C0 19.0845 0 19.033 0 18.9816ZM7.5943 4.63383C7.54287 4.71964 7.50859 4.77113 7.4743 4.82262C6.53144 7.44846 5.58858 10.0743 4.62858 12.683C4.50858 12.9919 4.62858 13.0091 4.88572 13.0091C6.7543 13.0091 8.60573 12.9919 10.4743 13.0091C10.8 13.0091 10.8515 12.9404 10.7315 12.6315C10.1657 11.2413 9.63431 9.83403 9.08573 8.44388C8.60573 7.19102 8.10859 5.92101 7.5943 4.63383Z" fill="#F6971F"/>
<path d="M22.9709 0C23.1766 1.80205 24.2052 2.7803 25.9709 3.03774C25.8166 3.26085 25.6281 3.20936 25.4738 3.24369C24.1881 3.51828 23.2623 4.46221 23.0223 5.76655C23.0052 5.85236 22.9881 5.93818 22.9709 6.02399C22.9538 6.1098 22.9195 6.19561 22.8166 6.17845C22.7138 6.17845 22.6623 6.1098 22.6452 6.02399C22.6109 5.85236 22.6109 5.68074 22.5595 5.50912C22.1995 4.29059 21.4281 3.51828 20.1938 3.24369C20.0395 3.20936 19.748 3.29517 19.748 3.07206C19.748 2.90044 20.0223 2.95193 20.1766 2.93476C21.4452 2.71165 22.5423 1.51029 22.6109 0.205948C22.6109 0.137299 22.5938 0.0686494 22.5938 0C22.7481 0 22.8681 0 22.9709 0Z" fill="#F6971F"/>
<path d="M108.515 6.89942C108.258 6.88225 108.121 6.76212 108.172 6.47036C108.207 6.28157 108.172 6.07562 108.172 5.80103C107.915 6.12711 107.898 6.52184 107.692 6.84793C107.418 6.55617 107.435 6.14427 107.178 5.78386C107.178 6.10995 107.178 6.38455 107.178 6.64198C107.178 6.72779 107.195 6.83077 107.075 6.83077C106.921 6.84793 106.938 6.72779 106.938 6.62482C106.938 6.24725 106.938 5.88684 106.938 5.50927C106.938 5.40629 106.921 5.26899 107.092 5.26899C107.212 5.26899 107.35 5.25183 107.401 5.40629C107.504 5.68089 107.607 5.97265 107.727 6.26441C107.881 6.07562 107.95 5.85251 108.001 5.6294C108.087 5.33764 108.241 5.20034 108.55 5.25183C108.515 5.81819 108.515 6.35022 108.515 6.89942Z" fill="#E33528"/>
<path d="M27.0694 10.6062C27.0694 7.92892 27.0694 5.26875 27.0694 2.59142C27.0694 2.23101 27.1723 2.1452 27.5152 2.1452C30.5152 2.16236 33.5323 2.16236 36.5323 2.1452C36.8923 2.1452 36.9952 2.24818 36.9609 2.60859C36.9266 3.00332 36.9266 3.41522 36.9609 3.80995C37.0123 4.23901 36.8237 4.2905 36.4637 4.2905C34.1837 4.27333 31.9209 4.2905 29.6409 4.27334C29.2123 4.27334 29.1094 4.39347 29.1094 4.82253C29.1437 6.24701 29.1266 7.67148 29.1094 9.09596C29.1094 9.42204 29.178 9.52502 29.5209 9.52502C31.5952 9.50785 33.6695 9.52502 35.7437 9.50785C36.0523 9.50785 36.1723 9.5765 36.138 9.90259C36.1037 10.3488 36.1037 10.795 36.138 11.2413C36.1552 11.6017 36.018 11.6703 35.7095 11.6531C33.6695 11.636 31.6123 11.6531 29.5723 11.636C29.2123 11.636 29.0923 11.7046 29.1094 12.0994C29.1266 13.5753 29.1266 15.0513 29.1094 16.5444C29.1094 16.8877 29.2123 16.9735 29.538 16.9735C32.0409 16.9563 34.5437 16.9735 37.0295 16.9563C37.3723 16.9563 37.5095 17.025 37.4752 17.4025C37.4409 17.8316 37.4409 18.2607 37.4752 18.6897C37.4923 19.0158 37.4066 19.1016 37.0809 19.1016C35.3837 19.0844 33.6866 19.1016 31.9895 19.1016C30.4809 19.1016 28.9723 19.0844 27.4637 19.1016C27.138 19.1016 27.0352 19.0158 27.0352 18.6726C27.0694 15.9781 27.0694 13.2836 27.0694 10.6062Z" fill="#E33528"/>
<path d="M79.8351 14.1589C78.3608 14.1589 76.9036 14.1589 75.4294 14.1589C75.1208 14.1589 75.0522 14.2447 75.0865 14.5536C75.2751 16.0639 76.6465 17.3682 78.2922 17.6085C79.8008 17.8316 81.1551 17.4712 82.2694 16.39C82.4408 16.2355 82.5265 16.2355 82.6637 16.4071C82.9722 16.7675 83.298 17.0936 83.6237 17.4369C83.7608 17.5742 83.778 17.6771 83.6065 17.8144C81.6522 19.5478 79.4237 20.1313 76.9551 19.3076C74.5551 18.5009 73.2351 16.6989 72.8751 14.1932C72.5322 11.9277 73.0808 9.88542 74.6922 8.22067C76.8865 5.97241 80.4008 6.29849 82.1837 7.49986C83.6408 8.47811 84.2408 9.95407 84.498 11.636C84.618 12.374 84.5837 13.1291 84.6008 13.8671C84.6008 14.1417 84.5151 14.1932 84.258 14.1932C82.8008 14.1588 81.3265 14.1589 79.8351 14.1589ZM78.7551 12.2367C79.8694 12.2367 80.9837 12.2195 82.098 12.2538C82.4751 12.271 82.5094 12.1337 82.4751 11.8076C82.2008 9.8511 80.7265 8.63257 78.6351 8.63257C76.9208 8.63257 75.3779 10.0227 75.1208 11.8076C75.0694 12.1337 75.1036 12.2538 75.4808 12.2538C76.5608 12.2195 77.6579 12.2367 78.7551 12.2367Z" fill="#E33528"/>
<path d="M50.2634 19.136C49.4748 19.136 48.8062 19.1188 48.1205 19.136C47.8805 19.136 47.7777 18.9987 47.6577 18.8442C46.6977 17.5742 45.7377 16.287 44.7777 15.017C44.6919 14.8969 44.6234 14.7424 44.4519 14.6566C43.4062 16.0468 42.3605 17.4369 41.3148 18.8271C41.1434 19.0673 40.9548 19.1531 40.6805 19.136C40.0462 19.1188 39.4119 19.136 38.7777 19.136C38.7434 18.9644 38.8634 18.8957 38.9491 18.7927C40.3034 17.0079 41.6577 15.223 43.0462 13.4724C43.3034 13.1463 43.2519 12.9747 43.0291 12.6829C41.6062 10.8809 40.1834 9.07885 38.7777 7.25964C38.6919 7.1395 38.5548 7.05369 38.5205 6.83058C39.3434 6.83058 40.1662 6.83058 40.9719 6.83058C41.1777 6.83058 41.2462 7.0022 41.3491 7.1395C42.3777 8.58114 43.4062 10.0228 44.4348 11.4473C44.6062 11.3786 44.6577 11.2241 44.7605 11.104C45.7205 9.78251 46.6977 8.461 47.6577 7.12234C47.812 6.91639 47.9491 6.81342 48.2234 6.83058C48.9605 6.84774 49.6805 6.83058 50.5205 6.83058C50.3834 7.01937 50.2977 7.1395 50.212 7.25964C48.8577 9.09601 47.5034 10.9324 46.1148 12.7516C45.9262 13.009 45.9434 13.1635 46.1148 13.4038C47.3834 15.1372 48.652 16.8877 49.9205 18.6211C50.0234 18.7927 50.1091 18.93 50.2634 19.136Z" fill="#E33528"/>
<path d="M90.5829 19.548C88.9715 19.548 87.5315 19.0503 86.3315 17.9347C86.1258 17.746 85.7315 17.6601 85.7658 17.3684C85.8001 17.1624 86.1258 16.9908 86.3315 16.802C86.5886 16.5617 86.8458 16.1842 87.1372 16.1327C87.4458 16.0812 87.6343 16.5617 87.9086 16.7849C89.1601 17.8146 90.5315 17.8832 91.9715 17.3341C92.6058 17.0938 92.9486 16.5789 93.0172 15.8924C93.0858 15.1888 92.7429 14.7082 92.1944 14.3478C91.6115 13.9531 90.9258 13.7986 90.2572 13.6098C89.4858 13.4039 88.6972 13.1979 87.9772 12.8547C86.7943 12.2712 86.0915 11.3616 86.0915 9.98856C86.0915 8.61558 86.7429 7.62016 87.9429 7.0538C89.6915 6.21285 91.4401 6.2815 93.1715 7.12245C93.7887 7.41421 94.1829 7.98057 94.6801 8.42679C94.8344 8.56409 94.7487 8.63274 94.6287 8.71855C94.2687 9.01031 93.8915 9.30207 93.5315 9.61099C93.3429 9.78262 93.2401 9.73113 93.0858 9.55951C92.0915 8.42679 90.8058 8.28949 89.4344 8.54693C89.1772 8.59841 88.9201 8.71855 88.6972 8.87301C87.9086 9.43937 87.9086 10.4348 88.7144 10.984C89.4344 11.4817 90.2915 11.6018 91.0972 11.8078C91.8344 11.9966 92.5715 12.1853 93.2572 12.5286C94.4229 13.1293 95.0058 14.1075 95.0915 15.4119C95.1772 16.8192 94.7487 17.9862 93.5487 18.7757C92.6744 19.3764 91.6458 19.5308 90.5829 19.548Z" fill="#E33528"/>
<path d="M105.669 15.4634C105.669 17.6773 104.537 19.016 102.549 19.4107C100.354 19.8398 98.3658 19.4107 96.703 17.8146C96.2401 17.3684 96.223 17.3856 96.7201 16.9565C97.0287 16.6819 97.303 16.2357 97.6458 16.1842C98.0058 16.1156 98.2458 16.6476 98.5373 16.9222C99.463 17.7803 101.52 17.9176 102.583 17.3513C103.766 16.7162 103.852 15.2231 102.754 14.4337C102.172 14.0046 101.469 13.8501 100.8 13.6613C100.063 13.4554 99.3259 13.2838 98.623 12.9577C97.3887 12.3913 96.6001 11.4817 96.6001 10.0573C96.6001 8.61562 97.303 7.60304 98.5887 7.01952C100.269 6.26437 101.966 6.33302 103.629 7.12249C104.263 7.41425 104.674 7.98061 105.189 8.44399C105.326 8.56413 105.309 8.63278 105.172 8.75292C104.777 9.06184 104.383 9.37076 104.006 9.69685C103.817 9.85131 103.749 9.73117 103.629 9.61103C102.634 8.47832 101.366 8.32386 99.9773 8.58129C99.703 8.63278 99.4459 8.75292 99.2059 8.92454C98.4344 9.4909 98.4344 10.4692 99.223 11.0183C99.9601 11.5332 100.817 11.6534 101.657 11.8593C102.292 12.0138 102.909 12.1854 103.509 12.4428C104.983 13.0263 105.634 14.1762 105.669 15.4634Z" fill="#E33528"/>
<path d="M16.6119 10.6406C16.6119 7.96324 16.6119 5.26875 16.5948 2.59143C16.5948 2.23102 16.6976 2.12804 17.0405 2.1452C17.4862 2.17953 17.9491 2.16237 18.3948 2.1452C18.6348 2.12804 18.7376 2.23102 18.7034 2.47129C18.7034 2.53994 18.7034 2.60859 18.7034 2.6944C18.7034 8.01473 18.7034 13.3179 18.7205 18.6382C18.7205 19.0844 18.6005 19.2046 18.1719 19.1703C17.7605 19.1359 17.3491 19.1359 16.9376 19.1703C16.5948 19.2046 16.5948 19.0158 16.5948 18.7584C16.6119 16.0295 16.6119 13.3351 16.6119 10.6406Z" fill="#F6971F"/>
<path d="M68.0737 8.15227C69.188 7.01955 70.508 6.65914 71.9309 6.62482C72.1709 6.62482 72.2566 6.65914 72.2566 6.91658C72.2394 7.46577 72.2394 8.01497 72.2566 8.547C72.2566 8.75295 72.2052 8.8216 71.9994 8.8216C70.0623 8.83876 68.948 10.0058 68.1252 11.6191C68.0566 11.7735 68.0737 11.928 68.0737 12.0824C68.0737 14.3136 68.0566 16.5275 68.0737 18.7586C68.0737 19.1018 67.988 19.2048 67.6623 19.1877C67.2337 19.1533 66.788 19.1705 66.3423 19.1877C66.1195 19.1877 66.0166 19.1533 66.0166 18.8787C66.0166 14.9657 66.0166 11.0699 66.0166 7.15685C66.0166 6.89941 66.1023 6.83076 66.3423 6.84793C66.8223 6.86509 67.3023 6.86509 67.7823 6.84793C68.0052 6.84793 68.0909 6.89941 68.0737 7.13969C68.0566 7.43145 68.0737 7.74037 68.0737 8.15227Z" fill="#E33528"/>
<path d="M23.9323 13.112C23.9323 14.9999 23.9323 16.8706 23.9323 18.7585C23.9323 19.0845 23.8465 19.1875 23.5208 19.1532C23.0922 19.1189 22.6808 19.1189 22.2522 19.1532C21.9094 19.1875 21.8408 19.0502 21.8408 18.7241C21.858 15.9782 21.8408 13.215 21.8408 10.469C21.8408 9.47362 21.858 8.49537 21.8408 7.49995C21.8408 7.19103 21.9265 7.10522 22.218 7.12238C22.6465 7.13954 23.0922 7.15671 23.5208 7.12238C23.8465 7.10522 23.9151 7.22535 23.9151 7.53428C23.9151 9.37065 23.9323 11.2413 23.9323 13.112Z" fill="#F6971F"/>
<path d="M105.925 6.21283C105.925 6.10985 105.925 6.00688 105.925 5.92107C105.925 5.71512 105.96 5.50917 105.634 5.5435C105.548 5.56066 105.463 5.52633 105.48 5.4062C105.497 5.32038 105.565 5.30322 105.634 5.30322C105.925 5.30322 106.217 5.30322 106.525 5.30322C106.611 5.30322 106.663 5.33755 106.663 5.42336C106.68 5.5435 106.594 5.57782 106.508 5.56066C106.234 5.50917 106.217 5.68079 106.234 5.88674C106.251 6.14418 106.234 6.40161 106.234 6.65905C106.234 6.76202 106.251 6.865 106.097 6.88216C105.943 6.89932 105.908 6.79635 105.908 6.65905C105.925 6.48742 105.925 6.35013 105.925 6.21283Z" fill="#E33528"/>
</svg>
