<svg width="96" height="33" viewBox="0 0 96 33" fill="none" xmlns="http://www.w3.org/2000/svg">
<path d="M45.1202 22.2624C45.1202 22.2474 45.1052 22.2323 45.1052 22.2323C45.1052 18.4769 45.0152 14.7064 45.1502 10.9659C45.2402 8.23194 47.626 5.27263 51.3622 5.7984C53.1478 6.05377 54.6183 6.81989 55.5336 8.44225C57.1991 11.4166 56.0587 16.0583 51.9924 17.0197C50.612 17.3502 49.2915 17.0949 48.0612 16.3888C47.611 16.1184 47.2359 15.7579 46.8908 15.2021C46.8908 17.6206 46.8908 19.949 46.8908 22.2774C46.3056 22.2624 45.7054 22.2624 45.1202 22.2624ZM50.5069 7.69116C49.9067 7.66111 49.3066 7.78129 48.7514 8.08172C47.1008 8.98304 46.7707 11.2363 47.1159 12.6484C47.566 14.451 49.3516 15.5626 51.2272 15.3073C52.7427 15.0969 53.793 14.3308 54.2131 12.7836C54.3632 12.2278 54.4082 11.6419 54.3782 11.0711C54.2882 9.46374 53.4329 8.32208 51.9924 7.88644C51.5273 7.73622 51.0321 7.67613 50.5069 7.69116Z" fill="#E33528"/>
<path d="M0 16.6143C0.315102 16.1185 0.450146 15.5477 0.660213 15.0069C2.29574 10.7557 3.91627 6.48952 5.53679 2.23832C5.64182 1.96793 5.76186 1.8778 6.04696 1.89282C6.52711 1.92286 7.00727 1.90784 7.48742 1.89282C7.65247 1.89282 7.75751 1.93788 7.81753 2.11815C9.64812 6.95519 11.4787 11.7922 13.3093 16.6293C13.3243 16.6593 13.3243 16.7044 13.3243 16.7645C12.7841 16.7645 12.259 16.7645 11.7338 16.7645C11.5387 16.7645 11.5237 16.6293 11.4787 16.4941C11.1186 15.5027 10.7435 14.5262 10.3984 13.5348C10.3083 13.2794 10.1733 13.2043 9.91821 13.2043C7.78752 13.2193 5.67183 13.2193 3.54114 13.2043C3.27106 13.2043 3.15102 13.2944 3.06099 13.5498C2.73088 14.5112 2.35576 15.4576 2.02566 16.404C1.92062 16.7044 1.78558 16.7795 1.48548 16.7645C0.99032 16.7344 0.49516 16.7645 0 16.7645C0 16.7044 0 16.6593 0 16.6143ZM6.64715 4.05597C6.60214 4.13108 6.57212 4.17615 6.54212 4.22121C5.71685 6.51956 4.89158 8.81791 4.05131 11.1012C3.94628 11.3716 4.05131 11.3867 4.27638 11.3867C5.91191 11.3867 7.53244 11.3716 9.16796 11.3867C9.45306 11.3867 9.49807 11.3266 9.39304 11.0562C8.89788 9.8394 8.43273 8.6076 7.95257 7.39083C7.53244 6.29423 7.0973 5.18261 6.64715 4.05597Z" fill="#F6971F"/>
<path d="M20.1066 0C20.2866 1.5773 21.1869 2.43355 22.7324 2.65887C22.5974 2.85416 22.4323 2.80909 22.2973 2.83914C21.1719 3.07949 20.3616 3.90569 20.1516 5.04735C20.1366 5.12246 20.1216 5.19757 20.1066 5.27268C20.0916 5.34779 20.0615 5.4229 19.9715 5.40788C19.8815 5.40788 19.8365 5.34779 19.8215 5.27268C19.7915 5.12246 19.7915 4.97224 19.7464 4.82203C19.4313 3.75547 18.7561 3.07949 17.6758 2.83914C17.5407 2.80909 17.2856 2.8842 17.2856 2.68892C17.2856 2.5387 17.5257 2.58376 17.6608 2.56874C18.7711 2.37346 19.7314 1.32193 19.7915 0.180263C19.7915 0.120175 19.7765 0.0600875 19.7765 0C19.9115 0 20.0165 0 20.1066 0Z" fill="#F6971F"/>
<path d="M94.981 6.0388C94.7559 6.02378 94.6359 5.91862 94.6809 5.66325C94.7109 5.49801 94.6809 5.31775 94.6809 5.0774C94.4558 5.36281 94.4408 5.70832 94.2608 5.99373C94.0207 5.73836 94.0357 5.37784 93.8106 5.06238C93.8106 5.34779 93.8106 5.58814 93.8106 5.81347C93.8106 5.88858 93.8256 5.97871 93.7206 5.97871C93.5855 5.99373 93.6005 5.88858 93.6005 5.79845C93.6005 5.46797 93.6005 5.15251 93.6005 4.82203C93.6005 4.73189 93.5855 4.61172 93.7356 4.61172C93.8406 4.61172 93.9607 4.5967 94.0057 4.73189C94.0957 4.97224 94.1857 5.22762 94.2908 5.48299C94.4258 5.31775 94.4858 5.12246 94.5308 4.92718C94.6059 4.67181 94.7409 4.55163 95.011 4.5967C94.981 5.09242 94.981 5.5581 94.981 6.0388Z" fill="#E33528"/>
<path d="M23.6933 9.28354C23.6933 6.94012 23.6933 4.61173 23.6933 2.26832C23.6933 1.95286 23.7834 1.87775 24.0835 1.87775C26.7093 1.89277 29.3502 1.89277 31.976 1.87775C32.2911 1.87775 32.3811 1.96788 32.3511 2.28334C32.3211 2.62884 32.3211 2.98937 32.3511 3.33487C32.3962 3.71042 32.2311 3.75548 31.916 3.75548C29.9204 3.74046 27.9397 3.75548 25.9441 3.74046C25.5689 3.74046 25.4789 3.84561 25.4789 4.22116C25.5089 5.46798 25.4939 6.7148 25.4789 7.96161C25.4789 8.24703 25.5389 8.33716 25.839 8.33716C27.6546 8.32214 29.4702 8.33716 31.2858 8.32214C31.5559 8.32214 31.6609 8.38222 31.6309 8.66764C31.6009 9.05821 31.6009 9.44878 31.6309 9.83935C31.6459 10.1548 31.5259 10.2149 31.2558 10.1999C29.4702 10.1849 27.6696 10.1999 25.884 10.1849C25.5689 10.1849 25.4639 10.2449 25.4789 10.5904C25.4939 11.8823 25.4939 13.1742 25.4789 14.4811C25.4789 14.7815 25.5689 14.8567 25.854 14.8567C28.0447 14.8416 30.2355 14.8567 32.4112 14.8416C32.7113 14.8416 32.8313 14.9017 32.8013 15.2322C32.7713 15.6078 32.7713 15.9833 32.8013 16.3588C32.8163 16.6443 32.7413 16.7194 32.4562 16.7194C30.9707 16.7044 29.4852 16.7194 27.9997 16.7194C26.6793 16.7194 25.3589 16.7044 24.0385 16.7194C23.7534 16.7194 23.6633 16.6443 23.6633 16.3438C23.6933 13.9854 23.6933 11.627 23.6933 9.28354Z" fill="#E33528"/>
<path d="M69.878 12.393C68.5876 12.393 67.3122 12.393 66.0218 12.393C65.7517 12.393 65.6917 12.4681 65.7217 12.7385C65.8867 14.0604 67.0871 15.2021 68.5276 15.4124C69.848 15.6077 71.0334 15.2922 72.0087 14.3459C72.1588 14.2107 72.2338 14.2107 72.3538 14.3609C72.6239 14.6763 72.909 14.9617 73.1941 15.2622C73.3141 15.3824 73.3291 15.4725 73.1791 15.5927C71.4685 17.1099 69.5179 17.6206 67.3572 16.8996C65.2565 16.1935 64.1011 14.6162 63.786 12.423C63.4859 10.4402 63.9661 8.65256 65.3765 7.19543C67.2972 5.22757 70.3732 5.51298 71.9337 6.56451C73.2091 7.42076 73.7343 8.71264 73.9593 10.1848C74.0644 10.8307 74.0344 11.4917 74.0494 12.1376C74.0494 12.378 73.9743 12.423 73.7493 12.423C72.4739 12.393 71.1834 12.393 69.878 12.393ZM68.9327 10.7106C69.908 10.7106 70.8833 10.6955 71.8587 10.7256C72.1888 10.7406 72.2188 10.6204 72.1888 10.335C71.9487 8.62251 70.6583 7.55596 68.8277 7.55596C67.3272 7.55596 65.9767 8.77273 65.7517 10.335C65.7067 10.6204 65.7367 10.7256 66.0668 10.7256C67.0121 10.6955 67.9724 10.7106 68.9327 10.7106Z" fill="#E33528"/>
<path d="M43.9944 16.7495C43.3042 16.7495 42.719 16.7345 42.1188 16.7495C41.9087 16.7495 41.8187 16.6293 41.7137 16.4941C40.8734 15.3825 40.0331 14.2558 39.1928 13.1442C39.1178 13.0391 39.0578 12.9039 38.9077 12.8288C37.9924 14.0455 37.0772 15.2623 36.1619 16.4791C36.0118 16.6894 35.8468 16.7645 35.6067 16.7495C35.0515 16.7345 34.4963 16.7495 33.9411 16.7495C33.9111 16.5993 34.0162 16.5392 34.0912 16.449C35.2766 14.8868 36.462 13.3245 37.6773 11.7923C37.9024 11.5068 37.8574 11.3566 37.6623 11.1012C36.4169 9.52395 35.1715 7.94665 33.9411 6.35433C33.8661 6.24918 33.7461 6.17407 33.7161 5.97879C34.4363 5.97879 35.1565 5.97879 35.8618 5.97879C36.0418 5.97879 36.1018 6.12901 36.1919 6.24918C37.0922 7.51102 37.9924 8.77286 38.8927 10.0197C39.0428 9.95959 39.0878 9.82439 39.1778 9.71924C40.0181 8.56255 40.8734 7.40587 41.7137 6.23416C41.8487 6.0539 41.9687 5.96377 42.2088 5.97879C42.854 5.99381 43.4842 5.97879 44.2195 5.97879C44.0994 6.14403 44.0244 6.24918 43.9494 6.35433C42.764 7.96168 41.5786 9.56902 40.3632 11.1613C40.1982 11.3867 40.2132 11.5219 40.3632 11.7322C41.4736 13.2494 42.5839 14.7816 43.6943 16.2988C43.7843 16.449 43.8593 16.5692 43.9944 16.7495Z" fill="#E33528"/>
<path d="M79.2856 17.11C77.8752 17.11 76.6148 16.6743 75.5644 15.6979C75.3844 15.5327 75.0393 15.4575 75.0693 15.2022C75.0993 15.0219 75.3844 14.8717 75.5644 14.7065C75.7895 14.4961 76.0146 14.1657 76.2697 14.1206C76.5398 14.0755 76.7048 14.4961 76.9449 14.6914C78.0402 15.5927 79.2406 15.6528 80.501 15.1721C81.0562 14.9618 81.3563 14.5112 81.4163 13.9103C81.4764 13.2944 81.1763 12.8738 80.6961 12.5583C80.1859 12.2128 79.5857 12.0776 79.0006 11.9124C78.3253 11.7321 77.6351 11.5519 77.0049 11.2514C75.9696 10.7407 75.3544 9.94452 75.3544 8.74276C75.3544 7.54101 75.9246 6.66974 76.9749 6.17402C78.5054 5.43795 80.0359 5.49804 81.5514 6.23411C82.0916 6.48948 82.4367 6.9852 82.8718 7.37577C83.0069 7.49595 82.9318 7.55604 82.8268 7.63114C82.5117 7.88652 82.1816 8.14189 81.8665 8.41228C81.7014 8.5625 81.6114 8.51744 81.4764 8.36722C80.6061 7.37577 79.4807 7.2556 78.2803 7.48093C78.0553 7.52599 77.8302 7.63114 77.6351 7.76634C76.9449 8.26206 76.9449 9.13333 77.6501 9.61403C78.2803 10.0497 79.0306 10.1548 79.7358 10.3351C80.381 10.5003 81.0262 10.6656 81.6264 10.966C82.6467 11.4918 83.1569 12.348 83.2319 13.4897C83.307 14.7215 82.9318 15.743 81.8815 16.434C81.1162 16.9597 80.2159 17.0949 79.2856 17.11Z" fill="#E33528"/>
<path d="M92.4903 13.5347C92.4903 15.4726 91.5 16.6443 89.7595 16.9898C87.8388 17.3653 86.0983 16.9898 84.6428 15.5927C84.2377 15.2022 84.2227 15.2172 84.6578 14.8416C84.9279 14.6013 85.168 14.2107 85.4681 14.1657C85.7832 14.1056 85.9932 14.5712 86.2483 14.8116C87.0586 15.5627 88.8592 15.6829 89.7895 15.1871C90.8248 14.6313 90.8998 13.3244 89.9395 12.6334C89.4293 12.2579 88.8141 12.1227 88.229 11.9574C87.5838 11.7772 86.9385 11.627 86.3233 11.3415C85.243 10.8458 84.5528 10.0497 84.5528 8.80284C84.5528 7.541 85.168 6.65471 86.2933 6.14397C87.7638 5.483 89.2493 5.54309 90.7048 6.2341C91.2599 6.48947 91.6201 6.98519 92.0702 7.39078C92.1902 7.49594 92.1752 7.55602 92.0552 7.66118C91.7101 7.93157 91.365 8.20197 91.0349 8.48738C90.8698 8.62258 90.8098 8.51743 90.7048 8.41227C89.8345 7.42083 88.7241 7.28563 87.5087 7.51096C87.2687 7.55602 87.0436 7.66118 86.8335 7.8114C86.1583 8.30712 86.1583 9.16337 86.8485 9.64407C87.4937 10.0947 88.244 10.1999 88.9792 10.3801C89.5344 10.5153 90.0746 10.6656 90.5997 10.8909C91.8901 11.4016 92.4603 12.4081 92.4903 13.5347Z" fill="#E33528"/>
<path d="M14.5399 9.31357C14.5399 6.97015 14.5399 4.61172 14.5249 2.2683C14.5249 1.95284 14.6149 1.86271 14.915 1.87773C15.3052 1.90778 15.7103 1.89276 16.1004 1.87773C16.3105 1.86271 16.4005 1.95284 16.3705 2.16315C16.3705 2.22324 16.3705 2.28332 16.3705 2.35843C16.3705 7.01522 16.3705 11.657 16.3855 16.3138C16.3855 16.7043 16.2805 16.8095 15.9053 16.7794C15.5452 16.7494 15.1851 16.7494 14.825 16.7794C14.5249 16.8095 14.5249 16.6442 14.5249 16.4189C14.5399 14.0304 14.5399 11.672 14.5399 9.31357Z" fill="#F6971F"/>
<path d="M59.5837 7.1355C60.559 6.14406 61.7143 5.8286 62.9597 5.79855C63.1698 5.79855 63.2448 5.8286 63.2448 6.05393C63.2298 6.53463 63.2298 7.01533 63.2448 7.481C63.2448 7.66127 63.1998 7.72135 63.0197 7.72135C61.3242 7.73638 60.3489 8.75786 59.6287 10.1699C59.5687 10.3051 59.5837 10.4403 59.5837 10.5755C59.5837 12.5284 59.5686 14.4662 59.5837 16.419C59.5837 16.7195 59.5086 16.8096 59.2235 16.7946C58.8484 16.7645 58.4583 16.7796 58.0682 16.7946C57.8731 16.7946 57.7831 16.7645 57.7831 16.5242C57.7831 13.0992 57.7831 9.68922 57.7831 6.26423C57.7831 6.0389 57.8581 5.97882 58.0682 5.99384C58.4883 6.00886 58.9084 6.00886 59.3286 5.99384C59.5236 5.99384 59.5987 6.0389 59.5837 6.24921C59.5686 6.50458 59.5837 6.77498 59.5837 7.1355Z" fill="#E33528"/>
<path d="M20.9472 11.4768C20.9472 13.1292 20.9472 14.7666 20.9472 16.419C20.9472 16.7044 20.8721 16.7945 20.5871 16.7645C20.2119 16.7344 19.8518 16.7344 19.4767 16.7645C19.1766 16.7945 19.1166 16.6744 19.1166 16.3889C19.1316 13.9854 19.1166 11.5669 19.1166 9.16342C19.1166 8.29215 19.1316 7.4359 19.1166 6.56463C19.1166 6.29424 19.1916 6.21913 19.4467 6.23415C19.8218 6.24917 20.2119 6.2642 20.5871 6.23415C20.8721 6.21913 20.9322 6.32428 20.9322 6.59468C20.9322 8.20202 20.9472 9.8394 20.9472 11.4768Z" fill="#F6971F"/>
<path d="M92.7146 5.43794C92.7146 5.34781 92.7146 5.25768 92.7146 5.18257C92.7146 5.00231 92.7446 4.82205 92.4595 4.85209C92.3845 4.86711 92.3095 4.83707 92.3245 4.73192C92.3395 4.65681 92.3995 4.64178 92.4595 4.64178C92.7146 4.64178 92.9697 4.64178 93.2398 4.64178C93.3148 4.64178 93.3598 4.67183 93.3598 4.74694C93.3748 4.85209 93.2998 4.88213 93.2248 4.86711C92.9847 4.82205 92.9697 4.97227 92.9847 5.15253C92.9997 5.37786 92.9847 5.60318 92.9847 5.82851C92.9847 5.91864 92.9997 6.00878 92.8647 6.0238C92.7296 6.03882 92.6996 5.94869 92.6996 5.82851C92.7146 5.67829 92.7146 5.55812 92.7146 5.43794Z" fill="#E33528"/>
<path d="M33.3445 28.8665H33.81C34.245 28.8665 34.5705 28.7814 34.7865 28.611C35.0025 28.4376 35.1105 28.1866 35.1105 27.8581C35.1105 27.5265 35.0192 27.2816 34.8367 27.1234C34.6572 26.9652 34.3743 26.8861 33.9879 26.8861H33.3445V28.8665ZM36.5387 27.8079C36.5387 28.5258 36.3136 29.0749 35.8634 29.4552C35.4162 29.8355 34.7789 30.0256 33.9514 30.0256H33.3445V32.3984H31.9299V25.7271H34.0609C34.8701 25.7271 35.4846 25.902 35.9044 26.2518C36.3273 26.5986 36.5387 27.1173 36.5387 27.8079Z" fill="white"/>
<path d="M38.2654 32.3984V25.7271H39.68V31.2303H42.386V32.3984H38.2654Z" fill="white"/>
<path d="M48.1009 32.3984L47.6172 30.8104H45.185L44.7013 32.3984H43.1772L45.5318 25.6997H47.2612L49.625 32.3984H48.1009ZM47.2795 29.624C46.8323 28.1851 46.5798 27.3713 46.522 27.1827C46.4672 26.9941 46.4277 26.8451 46.4034 26.7355C46.303 27.1249 46.0155 28.0878 45.5409 29.624H47.2795Z" fill="white"/>
<path d="M55.2851 32.3984H50.3204V31.4812L53.5192 26.8953H50.4071V25.7271H55.1984V26.6397L52.0042 31.2303H55.2851V32.3984Z" fill="white"/>
<path d="M60.8996 32.3984L60.4159 30.8104H57.9838L57.5001 32.3984H55.976L58.3306 25.6997H60.06L62.4237 32.3984H60.8996ZM60.0782 29.624C59.6311 28.1851 59.3786 27.3713 59.3208 27.1827C59.266 26.9941 59.2265 26.8451 59.2021 26.7355C59.1017 27.1249 58.8142 28.0878 58.3397 29.624H60.0782Z" fill="white"/>
</svg>
