<svg width="55" height="27" viewBox="0 0 55 27" fill="none" xmlns="http://www.w3.org/2000/svg">
<path d="M48.515 8.0978H50.7088C52.1254 8.0978 53.2787 9.22658 53.2787 10.613C53.2787 11.9995 52.1254 13.1283 50.7088 13.1283H48.515V16.8704C48.515 18.3918 47.2488 19.631 45.6944 19.631C44.1399 19.631 42.8737 18.3918 42.8737 16.8704V7.60702C42.8737 3.87713 45.9576 0.858858 49.7686 0.858858H51.7117C53.1283 0.858858 54.2816 1.98764 54.2816 3.37408C54.2816 4.76052 53.1283 5.88931 51.7117 5.88931H49.894C49.1293 5.88931 48.515 6.49051 48.515 7.23894V8.0978ZM37.0444 8.0978H39.2382C40.6548 8.0978 41.8081 9.22658 41.8081 10.613C41.8081 11.9995 40.6548 13.1283 39.2382 13.1283H37.0444V23.6186C37.0444 25.14 35.7782 26.3792 34.2238 26.3792C32.6693 26.3792 31.4031 25.14 31.4031 23.6186V7.60702C31.4031 3.87713 34.487 0.858858 38.298 0.858858H40.2411C41.6577 0.858858 42.811 1.98764 42.811 3.37408C42.811 4.76052 41.6577 5.88931 40.2411 5.88931H38.4234C37.6587 5.88931 37.0444 6.49051 37.0444 7.23894V8.0978ZM5.64128 19.9746V23.6309C5.64128 25.1523 4.37512 26.3915 2.82064 26.3915C1.26615 26.3915 0 25.1523 0 23.6309V2.77288C0 1.23921 1.26615 0 2.82064 0C4.37512 0 5.64128 1.23921 5.64128 2.76061V8.15915H9.27677V2.76061C9.27677 1.23921 10.5429 0 12.0974 0C13.6519 0 14.918 1.23921 14.918 2.76061V23.6186C14.918 25.14 13.6519 26.3792 12.0974 26.3792C10.5429 26.3792 9.27677 25.14 9.27677 23.6186V14.4165C9.27677 13.6681 8.6625 13.0669 7.89779 13.0669H5.64128V19.9746ZM23.0039 6.68682H23.2546C27.0656 6.68682 30.1495 9.70509 30.1495 13.435V19.631C30.1495 23.3609 27.0656 26.3792 23.2546 26.3792H23.0039C19.1929 26.3792 16.109 23.3609 16.109 19.631V13.435C16.109 9.70509 19.1929 6.68682 23.0039 6.68682ZM23.1292 11.5946C22.3269 11.5946 21.6876 12.2203 21.6876 13.0056V20.0605C21.6876 20.8457 22.3269 21.4714 23.1292 21.4714C23.9316 21.4714 24.5709 20.8457 24.5709 20.0605V13.0056C24.5709 12.2203 23.9316 11.5946 23.1292 11.5946ZM45.6944 20.3672C47.4243 20.3672 48.8284 21.7414 48.8284 23.4345C48.8284 25.1277 47.4243 26.5019 45.6944 26.5019C43.9644 26.5019 42.5603 25.1277 42.5603 23.4345C42.5603 21.7414 43.9644 20.3672 45.6944 20.3672Z" fill="#E41609"/>
</svg>
