<svg width="94" height="18" viewBox="0 0 94 18" fill="none" xmlns="http://www.w3.org/2000/svg">
<path d="M42.6328 15.7542H46.0102V9.05299C46.0102 5.51296 43.6555 3.6336 40.8224 3.6336C38.9474 3.6336 37.5309 4.41375 36.5105 5.4938H36.052C35.282 4.53326 33.949 3.6336 31.9705 3.6336C30.1754 3.6336 28.7412 4.39346 27.9912 5.27396H27.5328V3.97407H24.387V15.7542H27.7432V9.59414C27.7432 7.49267 28.3897 6.77339 30.6386 6.77339C32.8874 6.77339 33.5116 7.49267 33.5116 9.59414V15.7531H36.8902V9.59414C36.8902 7.49267 37.5144 6.77339 39.7644 6.77339C42.0156 6.77339 42.6387 7.49267 42.6387 9.59414L42.634 15.7531L42.6328 15.7542ZM10.9327 14.0676C10.3296 13.6483 10.0581 13.0282 10.0581 12.0891C10.0581 10.9087 10.4343 9.45434 11.0585 8.82864C11.4958 8.40812 12.12 8.20857 12.9746 8.20857C14.1831 8.20857 15.662 8.51297 16.2862 9.12852C16.7035 9.52875 16.8916 10.0879 16.8916 10.8681C16.8916 11.9887 16.5577 13.5682 15.8277 14.2277C15.4116 14.5885 14.8497 14.7475 14.0585 14.7475C12.977 14.7475 11.618 14.5062 10.9327 14.0676ZM16.2462 16.5479L16.0993 17.628L19.2427 18L20.7321 6.32807L17.5899 5.95716L17.4429 7.08906H17.0797C16.6095 6.28974 15.3493 5.20857 12.9746 5.20857C9.66309 5.20857 7.22616 7.54904 6.78767 10.7475C6.74705 11.0598 6.72624 11.3741 6.72537 11.6888C6.72537 14.7475 8.89192 17.2683 12.2658 17.628C12.4539 17.6449 12.6408 17.6505 12.8289 17.6483C14.2454 17.6483 15.3081 17.0688 15.8501 16.549H16.245L16.2462 16.5479ZM87.3557 13.0936C84.8354 13.0936 84.0019 12.2943 84.0019 9.87486C84.0019 7.45434 84.8365 6.63134 87.3557 6.63134C89.8761 6.63134 90.7096 7.45096 90.7096 9.87486C90.7096 12.2976 89.8761 13.0936 87.3557 13.0936ZM71.1918 13.0936C68.6702 13.0936 67.838 12.2943 67.838 9.87486C67.838 7.45434 68.6702 6.63134 71.1906 6.63134C73.711 6.63134 74.5457 7.45096 74.5457 9.87486C74.5457 12.2976 73.711 13.0936 71.1906 13.0936H71.1918ZM55.4429 13.0936C52.9236 13.0936 52.0902 12.2943 52.0902 9.87486C52.0902 7.45434 52.9236 6.63134 55.4429 6.63134C57.9621 6.63134 58.7979 7.45096 58.7979 9.87486C58.7979 12.2976 57.9633 13.0936 55.4429 13.0936ZM2.04782 0L0 15.7306L3.34329 16.1218L5.3582 0.390079L2.04782 0ZM90.8554 14.6144V15.7531H94V3.9752H90.8554V5.11612H90.3969C89.8961 4.47576 88.6265 3.63585 86.9137 3.63585C83.1637 3.63585 80.6033 6.37204 80.6033 9.87599C80.6033 13.3788 83.1649 16.0958 86.9137 16.0958C88.623 16.0958 89.8926 15.2559 90.3969 14.6156H90.8554V14.6144ZM55.4429 3.63472C51.2767 3.63472 48.6952 6.37091 48.6952 9.87486C48.6952 13.3777 51.2767 16.0947 55.4429 16.0947C59.609 16.0947 62.1988 13.3743 62.1988 9.87486C62.1988 6.3743 59.6149 3.63472 55.4429 3.63472ZM74.7326 14.6144V15.7531H77.8772V0.135287H74.5457V5.11499H74.0872C73.5876 4.47463 72.4614 3.63472 70.7545 3.63472C67.0045 3.63472 64.4418 6.37091 64.4418 9.87486C64.4418 13.3777 67.0045 16.0947 70.7545 16.0947C72.4614 16.0947 73.7945 15.2548 74.2741 14.6144H74.7326Z" fill="#F93D00"/>
</svg>
