<svg width="88" height="19" viewBox="0 0 88 19" fill="none" xmlns="http://www.w3.org/2000/svg">
<path fill-rule="evenodd" clip-rule="evenodd" d="M10.6012 0.0538741C5.32644 -0.498717 0.595494 3.26247 0.0517065 8.44969C-0.492081 13.6369 3.31443 18.2715 8.58917 18.8241C13.8639 19.3767 18.5767 15.6155 19.1386 10.4283C19.2111 9.7866 19.2111 9.12706 19.1386 8.48534C18.6855 4.02896 15.1146 0.517337 10.6012 0.0538741ZM10.293 14.4391C7.48347 14.8134 4.90954 12.8704 4.52889 10.1075C4.14824 7.34451 6.124 4.83111 8.93357 4.45677C11.7431 4.08244 14.3171 6.02542 14.6977 8.77055C14.7521 9.21618 14.7521 9.66182 14.6977 10.0896C14.3896 12.3535 12.5769 14.136 10.293 14.4391ZM24.2684 0.42821C23.0358 0.42821 22.0388 1.42644 22.0388 2.63857C22.0388 2.78118 22.057 2.94161 22.0932 3.08421C22.3107 4.11809 23.2896 4.83111 24.359 4.83111H30.5944L20.8969 17.4516C20.6794 17.7368 20.7337 18.1289 21.0238 18.325C21.1325 18.4141 21.2775 18.4498 21.4044 18.4498H36.6123C37.6818 18.4498 38.6787 17.7368 38.8781 16.7029C39.1319 15.5086 38.3525 14.3499 37.1561 14.1004C37.0111 14.0647 36.848 14.0469 36.703 14.0469H29.1081L38.8056 1.44426C39.0231 1.15906 38.9688 0.766894 38.6787 0.552988C38.57 0.463861 38.425 0.42821 38.2981 0.42821H24.2684ZM85.0638 0.481686C84.0306 0.731243 83.3055 1.64034 83.3237 2.69205V10.0183L71.2335 0.570814C70.9616 0.356908 70.5447 0.392559 70.3271 0.677767C70.2365 0.78472 70.1821 0.927324 70.1821 1.06993V16.2038C70.164 17.2555 70.8891 18.1646 71.9223 18.4141C73.1367 18.6815 74.3149 17.9329 74.5868 16.7385C74.6231 16.5781 74.6412 16.4177 74.6412 16.2573V8.85967L86.7314 18.3072C87.0033 18.5211 87.4202 18.4854 87.6377 18.2002C87.7283 18.0933 87.7827 17.9507 87.7827 17.8081V2.62075C87.7827 1.40861 86.7858 0.42821 85.5532 0.410384C85.3719 0.42821 85.2269 0.446035 85.0638 0.481686ZM53.5966 4.4033C58.7082 4.4033 62.5329 7.0593 62.5329 9.43009C62.5329 11.8009 58.7082 14.4569 53.5966 14.4569C48.485 14.4569 44.6785 11.8187 44.6785 9.44792C44.6785 7.07712 48.485 4.4033 53.5966 4.4033ZM53.5966 0.000397545C46.2011 0.000397545 40.2013 4.22504 40.2013 9.43009C40.2013 14.6351 46.2011 18.8598 53.5966 18.8598C60.9921 18.8598 66.9919 14.6351 66.9919 9.43009C66.9919 4.22504 60.9921 0.000397545 53.5966 0.000397545Z" fill="#0069FF"/>
</svg>
