<svg width="101" height="29" viewBox="0 0 101 29" fill="none" xmlns="http://www.w3.org/2000/svg">
<path d="M100.987 16.3964C100.945 16.6956 100.903 16.9948 100.85 17.2838C100.303 20.1317 97.9678 22.4637 95.0751 23.0519C93.392 23.3924 91.7826 23.2066 90.2363 22.4843C90.1943 22.4637 90.1522 22.4534 90.0996 22.4431C89.9523 22.4224 89.8261 22.3295 89.6999 22.2573C89.0793 21.9168 88.5323 21.4834 88.0484 20.9778C87.9958 20.9262 87.8591 20.8643 88.0063 20.7714C88.2062 20.7405 88.3955 20.7611 88.5954 20.7611C88.7321 20.7611 88.7847 20.7095 88.7847 20.5754V19.4919C88.7847 19.3475 88.7321 19.2959 88.5849 19.2959H87.0807C86.9965 19.2959 86.9124 19.3062 86.8282 19.2753C86.7651 19.2546 86.7335 19.203 86.7125 19.1514C86.4074 18.522 86.176 17.8719 86.0603 17.1806C86.0498 17.1393 86.0393 17.0877 86.0708 17.0464C86.134 16.9742 86.2181 16.9742 86.2917 16.9639C87.7644 16.7575 89.0687 16.1797 90.1838 15.2097C90.2153 15.1788 90.2469 15.1478 90.2995 15.1375C90.3626 15.1478 90.3941 15.1994 90.4257 15.251C90.6887 15.6328 91.0568 15.8701 91.4881 16.0455C91.9299 16.2209 92.3927 16.3345 92.8556 16.4583C93.4131 16.6027 93.9601 16.7369 94.5176 16.8813C94.6333 16.9123 94.7385 16.9536 94.8542 17.0052C95.4538 17.2425 95.6747 17.7068 95.6641 18.2228C95.6431 18.7903 95.2854 19.1411 94.7805 19.3475C94.465 19.4816 94.1178 19.5332 93.7707 19.5435C93.2553 19.5539 92.7504 19.5332 92.256 19.3475C91.73 19.1514 91.3408 18.8109 91.162 18.2743C91.0884 18.0783 91.0884 18.0783 90.8885 18.1196C90.4678 18.2021 90.0365 18.295 89.6157 18.3879C89.4159 18.4291 89.4054 18.4498 89.4685 18.6355C89.784 19.5642 90.4467 20.173 91.3619 20.5341C92.256 20.8849 93.1922 20.9778 94.1494 20.8953C94.749 20.8437 95.317 20.6992 95.864 20.4309C96.8423 19.946 97.4313 19.1824 97.5365 18.0886C97.6101 17.2838 97.3892 16.5511 96.8423 15.9423C96.5267 15.5915 96.0954 15.3851 95.6431 15.2304C94.8226 14.9518 93.9811 14.797 93.1396 14.5803C92.8345 14.4977 92.54 14.3842 92.2665 14.2295C91.5617 13.827 91.5828 12.888 92.1824 12.434C92.2981 12.3412 92.4243 12.2586 92.561 12.2173C93.2027 12.0007 93.8549 11.9903 94.4965 12.2277C94.9068 12.3721 95.1908 12.6714 95.3696 13.0531C95.4117 13.1563 95.4643 13.177 95.5695 13.1563C96.0218 13.0428 96.4741 12.9396 96.9159 12.8261C97.0737 12.7849 97.0842 12.7642 97.0211 12.5991C96.7686 11.9078 96.2532 11.4641 95.601 11.1442C94.9594 10.8243 94.2546 10.7108 93.5498 10.6799C93.3079 10.6696 93.0765 10.7211 92.8345 10.7211C92.7714 10.7211 92.6873 10.7624 92.6452 10.6696C92.6452 10.3187 92.6873 9.95757 92.6873 9.60674C92.6767 9.32814 92.6557 9.04953 92.6242 8.77093C92.6136 8.6987 92.5821 8.62648 92.6347 8.55425C92.9923 8.57488 93.3605 8.52329 93.7181 8.53361C97.1789 8.66775 100.072 11.0617 100.787 14.3842C100.86 14.7041 100.892 15.0343 100.945 15.3645C100.987 15.6947 100.987 16.0455 100.987 16.3964Z" fill="#EE409B"/>
<path d="M100.987 4.09648C100.924 4.43699 100.882 4.77751 100.745 5.09738C100.125 6.58326 99.0097 7.4397 97.3687 7.56352C95.3386 7.72862 93.5609 6.29434 93.2769 4.30285C92.9718 2.23913 94.4655 0.309559 96.5903 0.0309576C96.6219 0.0309576 96.6534 0.0309557 96.664 0H97.5581C97.9052 0.0206372 98.2523 0.0928685 98.5784 0.22701C99.4094 0.557205 100.041 1.10409 100.503 1.85734C100.787 2.32168 100.966 2.80665 100.977 3.35354C100.977 3.37418 100.987 3.38449 100.998 3.40513C100.987 3.63214 100.987 3.85915 100.987 4.09648ZM5.27525 5.53076C5.00176 4.97356 4.85449 4.3854 4.85449 3.76628C4.85449 2.04308 6.07469 0.515929 7.77876 0.103186C7.94707 0.0619115 8.11537 0.0309557 8.27315 0H9.16726L9.73529 0.123824C12.4913 0.866762 13.5116 4.14807 11.6497 6.2737C11.6182 6.30466 11.5971 6.33561 11.5761 6.36657C11.4288 6.61421 11.2079 6.76899 10.9765 6.92377C10.3033 7.37779 9.56699 7.61511 8.73599 7.61511C7.82084 7.61511 7.0214 7.33651 6.30611 6.79995C5.91691 6.51103 5.60134 6.14987 5.34888 5.72681C5.30681 5.6649 5.26473 5.60299 5.27525 5.53076Z" fill="#EB208A"/>
<path d="M5.27491 5.53091C5.49581 5.90238 5.74826 6.25321 6.07435 6.55245C6.65289 7.08902 7.33663 7.41921 8.12555 7.53272C9.16692 7.67718 10.1136 7.47081 10.9762 6.87233C11.1866 6.72787 11.3654 6.53182 11.5652 6.36672C12.2174 6.77946 12.7854 7.27475 13.2798 7.86291C13.3324 7.93514 13.3114 8.00737 13.2904 8.0796C13.1641 8.66776 13.08 9.25592 13.101 9.84408C13.1326 10.8243 13.3324 11.7737 13.7427 12.6714C14.1003 13.4556 14.5947 14.1366 15.1732 14.766C15.2153 14.8073 15.2574 14.8486 15.2784 14.9105C15.289 15.055 15.2364 15.1891 15.1943 15.3232C14.9734 16.1281 14.763 16.9433 14.5526 17.7481C14.5211 17.8513 14.5316 18.0061 14.4264 18.0164C14.3107 18.0164 14.3212 17.8513 14.2897 17.7584C13.7532 15.8598 13.2272 13.9612 12.7013 12.0626C12.6066 11.7221 12.5014 11.3815 12.4173 11.0307C12.3857 10.8863 12.3121 10.814 12.1438 10.8243C11.681 10.8347 11.2181 10.8347 10.7553 10.8243C10.6185 10.8243 10.5554 10.8759 10.5239 11.0101C10.0716 12.8261 9.60872 14.6422 9.1564 16.448C9.0407 16.902 8.93551 17.3663 8.80928 17.8203C8.79876 17.8513 8.78824 17.8926 8.77772 17.9235C8.7672 17.9545 8.74617 17.9958 8.70409 17.9958C8.66201 17.9958 8.64098 17.9648 8.63046 17.9338C8.58838 17.8513 8.56734 17.7687 8.54631 17.6862C8.02036 15.705 7.47337 13.7239 6.93691 11.7427C6.87379 11.4951 6.80016 11.2474 6.73705 10.9998C6.70549 10.8863 6.64237 10.8347 6.51615 10.8347H5.00142C4.85415 10.8347 4.84363 10.8553 4.88571 11.0204C5.12765 11.9078 5.3801 12.7849 5.62204 13.6723C6.07435 15.282 6.51615 16.8917 6.96846 18.5014L7.53649 20.5444C7.57856 20.6992 7.65219 20.7508 7.80998 20.7508C8.26229 20.7405 8.71461 20.7508 9.16692 20.7508C9.40886 20.7508 9.40886 20.7508 9.47197 20.5238C10.04 18.295 10.587 16.0559 11.155 13.827C11.176 13.7548 11.1866 13.6826 11.2181 13.6104C11.2286 13.5691 11.2497 13.5175 11.3023 13.5175C11.3654 13.5175 11.3759 13.5691 11.3864 13.6104C11.4601 13.858 11.5337 14.1056 11.5968 14.3533C12.1543 16.3964 12.7223 18.4395 13.2904 20.4928C13.364 20.7611 13.364 20.7611 13.6585 20.7611C14.1003 20.7611 14.5526 20.7508 14.9944 20.7611C15.1627 20.7611 15.2364 20.7095 15.2784 20.5444C15.5519 19.4919 15.8465 18.4395 16.141 17.3766C16.2462 16.9742 16.3619 16.5615 16.4671 16.159C16.4881 16.0868 16.4986 16.0146 16.5723 15.963C16.6564 15.9217 16.7195 15.9733 16.7826 16.0146C17.4874 16.417 18.2343 16.6956 19.0337 16.8607C19.1284 16.8813 19.223 16.8917 19.2651 16.9949C19.2967 17.0877 19.2862 17.1806 19.2862 17.2735V20.4825C19.2862 20.7302 19.3072 20.7405 19.5491 20.7405H20.601C20.6852 20.7405 20.7693 20.7405 20.8535 20.7508C20.9482 20.7714 20.9587 20.854 20.9797 20.9262C21.3058 22.0097 22 22.7836 23.0309 23.2892C23.073 23.3098 23.1361 23.3201 23.1256 23.3924C22.2946 25.3116 20.8956 26.6943 18.918 27.4373C15.8359 28.6032 12.5225 27.7365 10.4082 25.2497C10.1347 24.9298 9.89273 24.5893 9.69287 24.2282C9.61924 24.094 9.54561 24.0631 9.38782 24.0837C7.38922 24.4345 5.48529 23.2376 4.96986 21.308C4.81208 20.7302 4.80156 20.1523 4.92779 19.5745C4.94882 19.4713 4.92779 19.4404 4.83312 19.3991C2.35064 18.4085 0.741243 16.6337 0.183738 14.0541C-0.363248 11.5466 0.320484 9.31783 2.10871 7.43985C2.98178 6.54213 4.05471 5.9127 5.27491 5.53091Z" fill="#8D287F"/>
<path d="M15.2571 14.9208C14.5102 14.1779 13.9317 13.3214 13.553 12.3412C13.29 11.6601 13.1428 10.9585 13.0797 10.2258C13.0166 9.4829 13.1007 8.77092 13.2585 8.04862C13.269 7.99703 13.2795 7.93512 13.2795 7.87321C13.4478 7.3676 13.6056 6.86198 13.8686 6.39765C15.0678 4.18947 16.9191 2.83774 19.4436 2.45595C22.999 1.9297 26.3336 3.89023 27.5958 7.2025C27.6063 7.23345 27.6274 7.25409 27.6379 7.27473C27.7431 7.39855 27.7747 7.54301 27.8062 7.68747C27.9535 8.21372 28.0481 8.75029 28.0797 9.30749C28.1849 11.3093 27.5432 13.0635 26.2284 14.5803C25.9864 14.8589 25.7235 15.1169 25.4289 15.3439C25.3763 15.3851 25.3132 15.478 25.2396 15.3645C25.208 15.2716 25.2185 15.1684 25.2185 15.0653V11.1752V10.9997C25.2185 10.8966 25.1765 10.8346 25.0608 10.8346H23.5776C23.4619 10.8346 23.3988 10.8862 23.4093 10.9997V20.4206C23.4093 20.7302 23.4093 20.7302 23.7249 20.7302H28.0797C28.1744 20.7302 28.269 20.7198 28.3637 20.7405C28.4794 20.7714 28.4479 20.8643 28.4268 20.9365C28.2901 21.4421 28.0376 21.8858 27.7115 22.2883C27.2592 22.8248 26.7017 23.2169 26.039 23.4646C25.9128 23.5162 25.7866 23.5781 25.6498 23.5471C24.7978 23.7432 23.9668 23.671 23.1463 23.3717C22.7887 23.1963 22.4521 23.0002 22.147 22.7423C21.5369 22.2057 21.1056 21.5763 20.9268 20.7818C21.032 20.7095 21.053 20.596 21.053 20.4722V18.6355C21.053 18.5529 21.053 18.4601 21.0636 18.3775C21.316 17.7894 21.6947 17.2838 22.1786 16.902C21.9577 16.9432 21.6947 17.0051 21.4212 17.0258C21.3476 17.0361 21.2634 17.0361 21.1898 17.0464C21.1372 17.0464 21.0846 17.0464 21.0636 16.9742C21.032 16.871 21.0425 16.7678 21.0425 16.6646V11.1339C21.0425 10.8243 21.0425 10.8243 20.727 10.8243H19.5699C19.3069 10.8243 19.2964 10.8346 19.2964 11.0926V16.5924C19.2964 16.7059 19.3279 16.8297 19.2438 16.9329C18.4864 16.7885 17.7606 16.5615 17.0769 16.2106C16.9191 16.1281 16.7613 16.0352 16.593 15.9527C16.5299 15.8701 16.572 15.7979 16.593 15.7153C16.8349 14.8176 17.0769 13.9199 17.3293 13.0222C17.5187 12.3412 17.6975 11.6704 17.8868 10.9894C17.9289 10.8346 17.9079 10.814 17.7501 10.814H16.593C16.4563 10.814 16.3931 10.8656 16.3616 10.9997C16.0671 12.1348 15.762 13.2698 15.457 14.4049C15.4044 14.5906 15.3938 14.7763 15.2571 14.9208Z" fill="#EB208A"/>
<path d="M90.3098 15.1373C89.9521 15.5191 89.5103 15.7977 89.0685 16.0557C88.248 16.5407 87.3539 16.8296 86.4072 16.9844C86.302 17.005 86.1968 17.0153 86.0917 17.0256C85.9654 17.1082 85.8182 17.1082 85.6814 17.1082C85.2081 17.1288 84.7347 17.1185 84.2614 17.0463C84.1772 17.036 84.0931 17.0256 84.0405 16.9534C84.0299 16.9328 84.0194 16.9225 84.0194 16.9018C83.9353 16.4994 84.0089 16.4065 84.4191 16.4065H87.6485C87.7326 16.4065 87.7747 16.3549 87.7852 16.2724C87.7957 15.9112 87.7957 15.5501 87.7852 15.1889C87.7852 15.1064 87.7326 15.0651 87.6485 15.0548H84.2403C84.051 15.0445 84.0089 15.0032 84.0089 14.8175C83.9984 14.0436 83.9984 13.2697 84.0089 12.4855C84.0089 12.2894 84.0615 12.2481 84.2508 12.2378H88.4374C88.7004 12.2378 88.7109 12.2275 88.7109 11.9695V11.0615C88.7109 10.8654 88.6898 10.8448 88.5005 10.8448H82.4626C82.2628 10.8448 82.2522 10.8551 82.2522 11.0925V16.0247C82.2522 16.1279 82.2628 16.2208 82.2417 16.324C82.1996 16.4581 82.105 16.4065 82.0313 16.3653C81.6737 16.2002 81.3161 16.0144 80.99 15.7874C80.6639 15.5604 80.3483 15.3231 80.0643 15.0445C80.0117 14.9929 79.9486 14.9413 79.9381 14.8587C79.917 14.7556 79.9275 14.6627 79.9275 14.5595V11.1647V10.9893C79.9275 10.8964 79.8855 10.8345 79.7803 10.8345H78.3392C78.234 10.8345 78.1919 10.8861 78.1919 10.9893V11.5465C78.1919 11.629 78.2024 11.7116 78.1709 11.7838C78.1498 11.8148 78.1288 11.8457 78.0867 11.8044C78.0552 11.7735 78.0341 11.7219 78.0236 11.6806C77.8974 11.2369 77.8027 10.7829 77.7712 10.3289C77.7291 9.76136 77.7501 9.19384 77.8343 8.62632C77.9289 7.96593 78.1183 7.32617 78.3918 6.71738C78.6337 6.17049 78.9493 5.66488 79.3174 5.19023C79.37 5.12832 79.4121 5.05609 79.4963 5.03545C79.8855 4.59175 80.3062 4.18933 80.7691 3.83849C80.8427 3.87977 80.8532 3.96232 80.8848 4.02423C81.2319 4.77748 81.842 5.15927 82.673 5.15927C83.6618 5.15927 84.5138 4.31315 84.5138 3.3432C84.5138 3.08524 84.4717 2.84791 84.3771 2.61058C84.356 2.54867 84.3139 2.48676 84.3455 2.41453C85.8708 2.23912 87.3329 2.46612 88.7004 3.16779C90.8673 4.29251 92.1716 6.04667 92.6555 8.39931C92.666 8.44058 92.666 8.49218 92.666 8.54377C92.7817 9.14225 92.8027 9.74072 92.7396 10.3392C92.7291 10.4527 92.7712 10.5765 92.6976 10.6797C92.645 10.7519 92.5503 10.7519 92.4767 10.7726C91.7614 10.917 91.1407 11.2163 90.6358 11.7425C90.0678 12.341 89.868 13.0633 89.9416 13.8785C89.9731 14.2706 90.0889 14.6317 90.2782 14.9826C90.2992 15.0238 90.3413 15.0754 90.3098 15.1373Z" fill="#BA3C94"/>
<path d="M48.3707 24.1766C47.2137 24.7957 45.9829 25.1156 44.6681 25.1053C43.3006 25.095 42.0278 24.7441 40.8497 24.0631C40.7971 24.0322 40.7445 24.0012 40.6919 23.9806C40.3869 23.8671 40.1449 23.6607 39.8925 23.4646C38.9773 22.7217 38.2831 21.8137 37.7992 20.7508C37.7466 20.627 37.673 20.627 37.5573 20.658C36.9682 20.8334 36.3686 20.9159 35.7585 20.885C35.5166 20.8747 35.2746 20.8644 35.0432 20.7818C32.7922 21.3906 27.0173 11.1649 35.8216 10.8966C36.0215 10.8037 36.2319 10.8347 36.4317 10.8553C37.1891 10.9276 37.9044 11.1339 38.5566 11.5157C38.8826 11.7015 39.1877 11.9078 39.4612 12.1761C39.5769 12.2896 39.6505 12.269 39.7557 12.1761C40.0713 11.8975 40.4184 11.6499 40.7971 11.4332C40.8602 11.4022 40.9233 11.33 40.997 11.4125C41.039 11.5054 42.4591 10.8553 42.3749 10.8141C42.3223 10.7212 42.4065 10.7212 42.4591 10.7109C42.6064 10.6593 42.7536 10.618 42.9009 10.587C42.9956 10.5664 43.0166 10.5355 42.964 10.4426C42.6905 9.96793 42.5222 9.452 42.4696 8.90512C42.4275 8.53365 42.417 8.16218 42.5538 7.80103L42.68 7.3986C43.1218 5.98496 44.4472 4.89119 45.9198 4.75705C47.666 4.61259 48.9598 5.30393 49.8224 6.78981C49.8855 6.81044 49.9065 6.86204 49.9276 6.92395C50.5692 8.42014 50.3693 9.79251 49.3175 11.0411C49.1912 11.1958 49.0545 11.33 48.8967 11.4435C48.7915 11.526 48.802 11.5776 48.9177 11.6499C49.3385 11.9181 49.7172 12.238 50.0643 12.5888C50.18 12.7024 50.2642 12.8159 50.2852 12.981C50.3062 13.0945 50.2957 13.1976 50.2957 13.3111V20.4207C50.2957 20.7508 50.2957 20.7405 50.6323 20.7508C50.8953 20.7508 51.1583 20.7405 51.4212 20.7612C51.5264 20.7818 51.5159 20.8437 51.4949 20.9263C51.4528 21.0398 51.3897 21.1326 51.3371 21.2358C50.9163 22.0097 50.3693 22.6804 49.7067 23.2789C49.328 23.6194 48.9177 23.9083 48.4654 24.156C48.4444 24.1766 48.4128 24.1973 48.3707 24.1766ZM79.4858 5.04597C78.7495 5.954 78.2235 6.95491 77.9711 8.08995C77.8764 8.53365 77.8238 8.97735 77.8028 9.43136C77.7607 10.1949 77.8764 10.9482 78.0658 11.6808C78.0763 11.7324 78.1078 11.784 78.1289 11.8459C78.192 11.8975 78.192 11.9697 78.192 12.042V15.509C78.192 15.54 78.192 15.5812 78.1815 15.6122C78.1289 15.7567 77.9816 15.7979 77.8764 15.8805C77.1716 16.3345 76.4143 16.6647 75.6043 16.8814C75.3624 16.9433 75.1204 16.9949 74.868 17.0258C74.8154 17.0362 74.7628 17.0465 74.7102 17.0155C74.5945 16.8607 74.5419 16.675 74.4788 16.4893C74.4367 16.3654 74.5419 16.3139 74.6366 16.2726C74.889 16.1591 68.3673 17.2322 68.3673 20.2762C68.3673 20.3794 68.3778 20.4722 68.3462 20.5754C68.2726 20.6993 68.199 20.6167 68.1464 20.5754C67.8939 20.3794 67.673 20.1627 67.4732 19.9254C67.2523 19.6674 67.0945 19.3682 66.9472 19.0689C66.7263 18.5736 66.6106 18.0371 66.6211 17.5005C66.6422 16.6131 66.9262 15.8082 67.5152 15.1169C67.6204 14.9931 67.7256 14.8589 67.8518 14.7558C68.0202 14.6216 68.0202 14.6113 67.8729 14.4462C67.4732 13.9715 67.1366 13.4556 66.8736 12.8984C66.5054 12.1245 66.274 11.3197 66.1899 10.4632C66.0952 9.54487 66.1688 8.64715 66.4213 7.75975C66.4528 7.65657 66.4318 7.58434 66.3371 7.52243C66.2635 7.47083 66.1688 7.43988 66.1373 7.32637C66.5054 7.31605 66.6737 7.13032 66.8315 6.80013C67.936 4.41653 69.8189 2.94098 72.4591 2.49728C74.8575 2.09485 76.9718 2.75524 78.781 4.35462C79.0335 4.55067 79.2544 4.79832 79.4858 5.04597Z" fill="#EB208A"/>
<path d="M66.1376 7.30568C66.5163 7.543 66.5163 7.543 66.4006 7.96606C66.2112 8.69868 66.1481 9.45194 66.2007 10.2052C66.3269 11.8355 66.916 13.2801 68.01 14.5184C68.0626 14.5803 68.0626 14.6215 67.9995 14.6731C67.2736 15.2716 66.8634 16.0455 66.7056 16.9639C66.6004 17.6243 66.6741 18.264 66.916 18.8831L66.9791 19.0689C66.9896 19.1205 66.9581 19.1411 66.9265 19.172C66.6846 19.3887 66.4216 19.5641 66.1376 19.7396C66.085 19.7705 66.0429 19.8118 65.9693 19.7705C65.9167 19.7292 58.4798 16.7988 58.4693 19.6261C58.4693 19.7292 58.5219 19.8737 58.4167 19.9356C58.3115 19.9872 58.2168 19.8737 58.1221 19.8118C56.8704 19.0689 55.9447 18.037 55.2925 16.7575C55.1453 16.4686 55.1768 16.4273 55.5029 16.417C55.6081 16.417 55.7343 16.4686 55.8185 16.3654C55.8395 15.932 55.8606 15.4986 55.808 15.0652C55.7554 15.0033 55.6923 15.0137 55.6291 15.0137H54.9033C54.7666 15.0137 54.6824 14.9621 54.6509 14.8279C54.5457 14.2501 54.4826 13.6619 54.5457 13.0738C54.5667 12.888 54.5562 12.7023 54.5983 12.5166C54.6193 12.434 54.6193 12.3515 54.6824 12.2895C54.7666 12.238 54.8613 12.2483 54.9559 12.2483H56.5233C56.7547 12.2483 56.7652 12.238 56.7652 12.0109V11.0513C56.7652 10.9069 56.7126 10.8553 56.5653 10.8553H55.4188C55.3346 10.8553 55.2399 10.8656 55.1558 10.8346C55.0401 10.783 55.0927 10.7005 55.1242 10.6283C55.2715 10.2362 55.4819 9.875 55.7133 9.52417C56.9335 7.69778 58.6481 6.59369 60.836 6.21191C61.2568 6.13968 61.6776 6.06744 62.1088 6.14999C62.1193 6.14999 62.1299 6.16031 62.1404 6.16031C63.4973 6.16031 64.7491 6.52146 65.9062 7.19217C66.0008 7.23345 66.0745 7.2644 66.1376 7.30568Z" fill="#7B2570"/>
<path d="M62.1613 6.16036C61.2672 6.13972 60.3941 6.28418 59.5526 6.58342C58.6585 6.9033 57.8591 7.36763 57.1332 7.98675C56.3443 8.65746 55.7448 9.46231 55.303 10.3807C55.2398 10.5148 55.1872 10.6489 55.1346 10.7831C55.0505 10.8656 54.9348 10.845 54.8296 10.845H50.5694C50.3485 10.845 50.338 10.8553 50.338 11.072V12.6611C50.338 12.7539 50.359 12.8468 50.2644 12.919C50.2433 12.8158 50.1907 12.7436 50.1171 12.6714C49.7384 12.2896 49.3282 11.9388 48.8654 11.6498C48.7812 11.5983 48.7286 11.5673 48.8443 11.4744C49.4229 11.0101 49.8331 10.4323 50.075 9.74091C50.4116 8.72969 50.3275 7.74942 49.8541 6.80011C50.3485 6.50087 50.8324 6.181 51.3583 5.93335C52.7574 5.25232 54.2405 4.86022 55.7973 4.75703C58.0484 4.62289 60.1732 5.08723 62.1613 6.16036ZM25.2713 15.4161C26.1655 14.7041 26.8597 13.8374 27.3436 12.8055C27.6697 12.1039 27.8906 11.3712 27.9852 10.6077C28.122 9.48294 28.0063 8.39949 27.6381 7.32636C27.6276 7.30572 27.6381 7.2954 27.6381 7.27477C30.1416 6.78979 32.3506 7.35732 34.2756 8.99797C34.2861 9.00829 34.2966 9.01861 34.3071 9.03924C34.3282 9.12179 34.2545 9.16307 34.2125 9.21466C33.7286 9.65836 33.3289 10.164 32.9923 10.7212C32.9607 10.7728 32.9186 10.8347 32.845 10.845C32.7188 10.8656 32.582 10.8553 32.4558 10.8553H31.183C30.9937 10.8553 30.9831 10.876 30.9726 11.0617V20.4722C30.9726 20.5857 30.9831 20.6992 30.9411 20.8024C30.8885 20.8643 30.8569 20.8127 30.8464 20.7715C30.8148 20.6889 30.8254 20.5961 30.8254 20.5135V13.2802C30.8254 13.2079 30.8464 13.1357 30.8043 13.0635C30.5729 13.2389 30.3836 13.4659 30.2047 13.6826C29.2475 14.8589 28.7005 16.2107 28.5848 17.7069C28.5533 18.099 28.5638 18.5014 28.5953 18.8935C28.6059 19.0379 28.669 19.0999 28.8268 19.0895C29.0266 19.0792 29.2265 19.0792 29.4368 19.0895C29.5 19.0895 29.5946 19.0689 29.5946 19.1824C29.5315 19.234 29.4474 19.2237 29.3737 19.2237C29.0897 19.2134 28.7952 19.2443 28.5112 19.2134C28.406 19.1721 28.3955 19.0689 28.3744 18.9864C28.2061 18.326 27.8695 17.7481 27.3857 17.2735C26.8597 16.7575 26.2391 16.4067 25.5028 16.2519C25.4081 16.2313 25.2924 16.2313 25.2398 16.1281C25.2082 15.9424 25.2187 15.7566 25.2293 15.5709C25.2187 15.4987 25.2293 15.4471 25.2713 15.4161Z" fill="#BA3C94"/>
<path d="M32.9072 10.7829C33.044 10.4836 33.2544 10.236 33.4437 9.96771C33.6856 9.61687 34.0222 9.34859 34.3062 9.03903C35.0215 8.43024 35.7999 7.92463 36.6835 7.59443C38.6716 6.87213 40.6387 6.93404 42.5741 7.8008C42.5741 8.06909 42.511 8.32705 42.5216 8.59534C42.5426 9.25573 42.7109 9.87484 43.0475 10.4424C43.1317 10.5868 43.0896 10.5971 42.9528 10.6178C42.753 10.6591 42.5636 10.7313 42.3743 10.7829C42.3112 10.8551 42.227 10.8448 42.1429 10.8448H41.2593C41.0489 10.8448 41.0384 10.8551 41.0279 11.0615C41.0173 11.175 41.0699 11.2988 40.9647 11.3917C40.5124 11.6496 40.0917 11.9489 39.692 12.2894C39.6183 12.3616 39.5762 12.341 39.5026 12.2791C38.7347 11.5361 37.7985 11.1131 36.7361 10.9377C36.4311 10.8861 36.126 10.8757 35.8105 10.8964C35.7684 10.9377 35.7158 10.9377 35.6632 10.9273C34.8322 10.7726 34.0012 10.8654 33.1702 10.8448C33.086 10.8448 32.9914 10.8654 32.9072 10.7829Z" fill="#7B2570"/>
<path d="M41.555 5.2109C40.482 5.20058 39.63 4.34414 39.63 3.28133C39.6405 2.25979 40.5136 1.40335 41.5445 1.41367C42.6489 1.42399 43.5115 2.24947 43.5115 3.31228C43.501 4.36478 42.6279 5.22122 41.555 5.2109Z" fill="#7C2570"/>
<path d="M84.346 2.41464C84.609 2.96153 84.651 3.50841 84.3986 4.06562C84.1251 4.68473 83.6412 5.04588 82.9785 5.18002C82.0318 5.36576 81.043 4.80855 80.759 3.83861C80.496 2.92025 80.9484 1.95031 81.8214 1.57884C82.7261 1.19705 83.7569 1.50661 84.2618 2.32177C84.2934 2.35273 84.3144 2.38369 84.346 2.41464Z" fill="#EB208A"/>
<path d="M55.9024 16.427C55.7867 16.5199 55.65 16.4477 55.5238 16.4683C55.4396 16.4786 55.3449 16.4683 55.2187 16.4683C55.9235 17.9645 56.9754 19.1099 58.4375 19.925V19.7083V11.0098C58.4375 10.9376 58.4059 10.855 58.4691 10.7931C58.5532 10.886 58.5217 10.9995 58.5217 11.113V20.5338C58.5217 20.7196 58.5427 20.7505 58.7426 20.7505H59.9522C60.2152 20.7505 60.2257 20.7402 60.2257 20.4822V17.0358C60.2257 16.9533 60.2257 16.8707 60.2362 16.7882C60.2468 16.685 60.3099 16.6334 60.4045 16.6231C60.4256 16.6231 60.4571 16.6231 60.4782 16.6128H62.7082C62.7818 16.6128 62.8555 16.6128 62.8975 16.685C62.8344 16.7779 62.7292 16.7572 62.6346 16.7572H60.636C60.3835 16.7572 60.373 16.7675 60.373 17.0049V20.3481C60.373 20.5957 60.373 20.6061 60.636 20.6473C61.772 20.8537 62.8975 20.8228 64.0125 20.5235C64.1072 20.5029 64.1914 20.4719 64.286 20.4616C64.3597 20.4513 64.3912 20.5029 64.4123 20.5648C64.4649 20.7196 64.57 20.7712 64.7278 20.7505C64.7804 20.7402 64.833 20.7505 64.8856 20.7815C64.9382 20.864 64.8646 20.9053 64.8225 20.9569C64.6226 21.1839 64.4543 21.4315 64.3702 21.7205C64.1808 22.4634 64.3492 23.1135 64.9277 23.65C64.9803 23.6913 65.0539 23.7223 65.0434 23.8151C63.6339 25.3113 61.9403 26.3535 59.9627 26.9623C58.9634 27.2719 57.9431 27.437 56.9017 27.4576C53.7461 27.5298 51.0006 26.5289 48.6654 24.4549C48.5602 24.362 48.4655 24.2588 48.3604 24.166C48.7706 23.9286 49.1598 23.6707 49.5174 23.3714C49.9382 23.0103 50.3379 22.6285 50.664 22.1848C50.9901 21.7514 51.2846 21.2974 51.5055 20.7918C51.6002 20.7092 51.7054 20.7299 51.8106 20.7299H56.4915C56.8491 20.7299 56.8491 20.7299 56.8491 20.3791V19.5226C56.8491 19.275 56.8386 19.2646 56.5862 19.2646H52.5364C52.063 19.2646 52.042 19.244 52.0315 18.79C52.0209 18.0986 52.0209 17.397 52.0315 16.7056C52.0315 16.4477 52.0946 16.3858 52.3681 16.3858C52.9782 16.3858 53.5988 16.3754 54.2089 16.3858C54.6928 16.3961 55.1661 16.3445 55.65 16.3445C55.7341 16.3754 55.8288 16.3548 55.9024 16.427Z" fill="#BA3C94"/>
<path d="M29.5946 19.1617C29.3631 19.0998 29.1317 19.1514 28.9108 19.1307H28.6794C28.6163 19.1307 28.5742 19.1101 28.5637 19.0379C28.5006 18.5839 28.5111 18.1298 28.5427 17.6758C28.5847 17.0464 28.711 16.417 28.9424 15.8288C29.2685 14.962 29.7103 14.1572 30.3414 13.4555C30.5097 13.2698 30.6885 13.0944 30.8989 12.8777V20.596C30.8989 20.6682 30.8568 20.7508 30.941 20.8024C31.0251 20.7404 31.1198 20.7508 31.2145 20.7508C32.0244 20.7508 32.8449 20.7404 33.6549 20.7508C34.0441 20.7508 34.4228 20.7095 34.812 20.7095C34.8961 20.7095 34.9908 20.6992 35.0644 20.7508C35.3484 20.7817 35.643 20.8333 35.927 20.8333C36.5055 20.8436 37.063 20.7611 37.5995 20.5857C37.7257 20.5444 37.7888 20.565 37.8414 20.6888C38.2937 21.7104 38.9564 22.5875 39.819 23.3201C40.103 23.5574 40.408 23.7535 40.6921 23.9702C39.9978 24.4964 39.2404 24.9195 38.4094 25.1877C37.3786 25.5283 36.3162 25.6418 35.2327 25.5283C35.1486 25.5179 35.1486 25.4457 35.117 25.3838C34.854 24.7544 34.3912 24.3416 33.7075 24.2178C32.2769 23.9598 31.3197 25.1671 31.4774 26.2506C31.488 26.3228 31.509 26.4053 31.4459 26.4673C29.1422 27.7468 26.3232 26.5498 25.7131 24.0527C25.671 23.8876 25.6499 23.7225 25.6289 23.5574C26.1233 23.413 26.5861 23.2066 26.9964 22.897C27.6696 22.3914 28.1324 21.7413 28.3744 20.9365C28.3849 20.8849 28.4059 20.8333 28.4164 20.7817C28.4795 20.7198 28.5637 20.7301 28.6478 20.7301H29.3526C29.542 20.7301 29.563 20.7095 29.563 20.5341C29.563 20.1626 29.5946 19.7911 29.542 19.4197C29.5314 19.3474 29.5209 19.2442 29.5946 19.1617Z" fill="#8D287F"/>
<path d="M79.991 14.9208C80.3592 15.2614 80.7484 15.5812 81.1691 15.8495C81.4952 16.0559 81.8318 16.2519 82.2 16.3861C82.2841 16.4789 82.2631 16.5821 82.2631 16.6853V20.5754C82.2526 20.6889 82.3157 20.7508 82.4314 20.7405H87.6488C87.754 20.7405 87.8697 20.7199 87.9539 20.7921C88.5219 21.4215 89.2056 21.9272 89.9525 22.3296C90.005 22.3605 90.0682 22.3709 90.0997 22.4224C88.8795 23.4233 87.47 23.9909 85.8816 24.1147C84.9875 24.1869 84.1039 24.1044 83.2309 23.8567C83.1046 23.8155 83.0836 23.8464 83.0941 23.9702C83.1572 24.9505 82.5682 25.7553 81.6109 25.9824C80.6853 26.199 79.7806 25.745 79.3704 24.8473C79.2968 24.8164 79.2862 24.7441 79.2652 24.6719C79.0233 23.8464 79.3599 22.959 80.1067 22.4947L80.1698 22.4637C80.3171 22.3709 80.3171 22.3709 80.1909 22.2573C79.7596 21.8549 79.3599 21.4422 79.0443 20.9469C79.0022 20.885 78.8865 20.8127 79.0443 20.7405C79.2231 20.7096 79.402 20.7302 79.5808 20.7199C79.9279 20.7199 79.9279 20.7199 79.9279 20.3897V16.1178V15.1375C79.9279 15.0859 79.9174 14.9931 79.991 14.9208Z" fill="#7C2570"/>
<path d="M78.9811 20.8127C79.181 21.1119 79.3914 21.3905 79.6333 21.6588C79.8647 21.9168 80.1172 22.1644 80.4012 22.412C79.8332 22.701 79.444 23.1137 79.2862 23.7225C79.181 24.1146 79.2231 24.5067 79.3703 24.8782C79.0127 24.9917 78.6866 25.1568 78.3184 25.26C76.7301 25.7243 75.1417 25.7037 73.5744 25.1671C73.5218 25.1465 73.4692 25.1155 73.4061 25.1258C73.364 25.0846 73.385 25.0226 73.385 24.9711C73.4376 23.9495 73.1852 23.0312 72.5015 22.2366C72.2069 21.8858 71.8598 21.5969 71.4601 21.3699C71.397 21.3389 71.3128 21.3183 71.2812 21.2357C71.3023 21.1841 71.3549 21.1841 71.4075 21.1738C72.3647 20.9571 73.1116 20.4412 73.6796 19.6673C73.7217 19.6157 73.7427 19.5538 73.8163 19.5332C73.89 19.5744 73.911 19.657 73.932 19.7189C74.0372 19.9975 74.1529 20.2761 74.2581 20.5547C74.3107 20.6992 74.3843 20.7611 74.5421 20.7508C75.0155 20.7404 75.4783 20.7508 75.9517 20.7508C76.162 20.7508 76.1726 20.7404 76.0989 20.5444C75.6571 19.4403 75.2153 18.3465 74.7735 17.2424C74.742 17.1599 74.6684 17.0773 74.7315 16.9845C75.1628 16.9122 75.5835 16.8297 76.0043 16.6956C76.6564 16.4892 77.2665 16.1899 77.8346 15.8288C77.8977 15.8907 77.8872 15.9733 77.8766 16.0455C77.7504 16.9638 77.8661 17.8616 78.087 18.749L78.1501 18.9656C78.1817 19.43 78.1606 19.8943 78.1712 20.3587C78.1817 20.792 78.1396 20.7404 78.5604 20.7508C78.7076 20.7611 78.8549 20.7095 78.9811 20.8127Z" fill="#BA3C94"/>
<path d="M71.3029 21.2359C72.0497 21.6073 72.6282 22.1645 73.0175 22.8972C73.2383 23.2996 73.3541 23.733 73.4067 24.187C73.4382 24.4965 73.4592 24.8061 73.4067 25.126C73.2489 26.6634 71.9656 28.0461 70.3772 28.3454C68.1261 28.7788 66.2853 27.3961 65.8225 25.5697C65.6963 25.095 65.6647 24.6204 65.7383 24.1354C65.8015 24.0838 65.8751 24.1044 65.9382 24.1044C67.0637 24.2592 68.063 23.4028 68.0735 22.278C68.0735 21.9582 67.9999 21.6589 67.8526 21.37C67.8316 21.3287 67.8001 21.2771 67.8211 21.2256C67.9999 21.0708 68.2208 21.0295 68.4417 20.9469C68.5469 20.9057 68.6731 20.8954 68.7783 20.8644C69.5778 20.7096 70.3562 20.7922 71.103 21.0914C71.1872 21.1224 71.2713 21.143 71.3029 21.2359Z" fill="#8D287F"/>
<path d="M31.4458 26.4879C31.3932 26.1061 31.4037 25.7243 31.551 25.3528C31.814 24.6821 32.5187 24.1972 33.2445 24.1559C34.1387 24.1146 34.9381 24.6512 35.2011 25.4767L35.2326 25.5386C35.2747 25.8275 35.3168 26.1267 35.2537 26.426C35.0643 27.2824 34.3385 27.9118 33.4654 27.9531C32.5608 27.9944 31.7824 27.4682 31.4984 26.6117C31.4879 26.5704 31.4668 26.5292 31.4458 26.4879ZM67.8414 21.2254C68.0202 21.5659 68.1464 21.9271 68.1359 22.3192C68.1149 23.2066 67.4417 23.9805 66.537 24.1353C66.2635 24.1765 66.0111 24.1559 65.7481 24.1249C65.5062 24.0424 65.2747 23.9392 65.0644 23.8154C64.8119 23.609 64.5805 23.3717 64.4543 23.0621C64.1597 22.3501 64.2018 21.6898 64.7067 21.0706C64.7804 20.9778 64.854 20.8952 64.9276 20.8024C64.9907 20.7301 65.0854 20.7508 65.159 20.7508H66.1373C66.3477 20.7508 66.3582 20.7404 66.2951 20.5444C66.2741 20.4928 66.253 20.4412 66.2635 20.3793C66.2846 20.3174 66.3372 20.3277 66.3792 20.3277C66.9999 20.369 67.4732 20.6476 67.8414 21.1326V21.2254Z" fill="#EB208A"/>
<path d="M90.31 15.1375C90.005 14.6319 89.8577 14.0747 89.8787 13.4865C89.9208 12.434 90.4257 11.6704 91.3409 11.1339C91.7616 10.8862 92.2245 10.7624 92.7083 10.6695C93.2448 10.6076 93.7707 10.587 94.3072 10.6798C95.2118 10.8243 96.0428 11.1339 96.674 11.8252C96.8949 12.0625 97.0421 12.3515 97.1473 12.661C97.1894 12.7745 97.1684 12.8158 97.0527 12.8364C96.5583 12.9499 96.0639 13.0738 95.5695 13.1976C95.4959 13.2182 95.4327 13.2285 95.3907 13.1253C95.1592 12.5681 94.7385 12.2586 94.1389 12.1451C93.634 12.0522 93.1291 12.0625 92.6452 12.2276C92.1193 12.4134 91.8247 12.8158 91.8142 13.3317C91.8037 13.6929 91.993 13.9508 92.2771 14.1469C92.5716 14.3429 92.9082 14.4461 93.2448 14.539C94.0758 14.7557 94.9278 14.9105 95.7378 15.1994C96.7476 15.5502 97.3893 16.2312 97.5576 17.2734C97.7679 18.5736 97.2736 19.7499 95.9482 20.4309C95.0225 20.9056 94.0232 21.0087 93.0029 20.9365C92.1613 20.8746 91.3514 20.6579 90.6361 20.1936C90.0155 19.7911 89.6158 19.2133 89.3949 18.5116C89.3633 18.4085 89.3738 18.3775 89.4895 18.3465C90.005 18.2434 90.5204 18.1299 91.0358 18.0267C91.0989 18.0164 91.1515 17.9957 91.1726 18.0783C91.3935 18.9141 92.0036 19.2959 92.8135 19.4197C93.4341 19.5229 94.0548 19.5332 94.6649 19.3268C95.012 19.2133 95.2855 19.0173 95.4853 18.7077C95.8009 18.2021 95.6116 17.3456 94.9489 17.0567C94.5176 16.871 94.0653 16.7884 93.6235 16.6646C93.0449 16.5098 92.4559 16.386 91.8879 16.2003C91.2357 16.0145 90.6677 15.7153 90.31 15.1375ZM87.9433 20.8127C87.1228 20.8127 86.3023 20.8127 85.4818 20.8024H82.3787C82.242 20.8024 82.1999 20.7714 82.1999 20.627C82.2104 19.2855 82.1999 17.9544 82.1999 16.613C82.1999 16.5408 82.1999 16.4582 82.1894 16.386C82.1894 16.0558 82.1999 15.7359 82.1999 15.4058V10.9584C82.1999 10.814 82.242 10.7727 82.3893 10.7727H88.5849C88.7427 10.7727 88.7848 10.814 88.7743 10.9688C88.7637 11.3402 88.7637 11.7117 88.7743 12.0935C88.7743 12.2483 88.7427 12.2895 88.5849 12.2895C87.1438 12.2792 85.7027 12.2895 84.2616 12.2792C84.0828 12.2792 84.0512 12.3205 84.0512 12.4856C84.0618 13.2595 84.0618 14.0334 84.0512 14.8176C84.0512 14.9517 84.0933 14.9827 84.2195 14.9827C85.3556 14.9827 86.4916 14.9827 87.6277 14.9724C87.796 14.9724 87.8591 15.0033 87.8486 15.1787C87.8275 15.5296 87.8381 15.8804 87.8486 16.2312C87.8591 16.3963 87.817 16.4479 87.6382 16.4479C86.5127 16.4376 85.3872 16.4479 84.2616 16.4376C84.0828 16.4376 84.0302 16.4892 84.0512 16.6543C84.0618 16.7472 84.0618 16.8504 84.0618 16.9535C84.1249 17.0361 84.1144 17.129 84.1144 17.2218V18.9347C84.1144 19.1617 84.1249 19.172 84.3563 19.172H86.5337C86.6284 19.172 86.7231 19.1617 86.8072 19.2236C87.4278 19.2236 88.059 19.2339 88.6796 19.2236C88.8163 19.2236 88.8479 19.2546 88.8479 19.3887C88.8374 19.8118 88.8374 20.2245 88.8479 20.6476C88.8479 20.7611 88.8268 20.8024 88.7006 20.792C88.4482 20.792 88.1957 20.8024 87.9433 20.8127Z" fill="white"/>
<path d="M86.8073 19.2237H84.1881C84.104 19.2237 84.0514 19.2237 84.0619 19.1205C84.0724 18.3982 84.0724 17.6759 84.0724 16.9536C84.6615 17.0568 85.261 17.098 85.8501 17.0258C85.9342 17.0155 86.0184 17.0155 86.1025 17.0155C86.2183 17.7275 86.4392 18.4085 86.7547 19.0586C86.7652 19.1205 86.7863 19.1721 86.8073 19.2237Z" fill="#746787"/>
<path d="M15.2564 14.9206C15.6035 13.6101 15.9612 12.2997 16.2978 10.9789C16.3398 10.8241 16.3924 10.7828 16.5607 10.7828C17.0341 10.7932 17.4969 10.7828 17.9913 10.7828C17.8546 11.2988 17.7178 11.8044 17.5811 12.2997C17.255 13.4966 16.9289 14.6833 16.6028 15.8802C16.5923 15.9112 16.5923 15.9421 16.5923 15.9628C16.403 16.6438 16.2136 17.3351 16.0243 18.0162C15.7823 18.8932 15.5404 19.7703 15.309 20.6474C15.2774 20.7506 15.2459 20.8022 15.1197 20.7919C14.5832 20.7815 14.0362 20.7815 13.4997 20.7919C13.3735 20.7919 13.3314 20.7609 13.2999 20.6371C12.6687 18.3257 12.0271 16.0144 11.3854 13.703C11.3644 13.6411 11.3433 13.5792 11.2908 13.5173C11.1645 14.0022 11.0488 14.4872 10.9226 14.9825C10.4492 16.8502 9.9864 18.7281 9.52357 20.5958C9.48149 20.7506 9.41838 20.7919 9.26059 20.7919C8.75568 20.7815 8.25077 20.7815 7.74586 20.7919C7.61964 20.7919 7.56704 20.7506 7.52497 20.6371C6.99902 18.7178 6.46255 16.8089 5.92609 14.8896C5.55792 13.5792 5.20028 12.2687 4.83212 10.9583C4.8216 10.9067 4.80056 10.8448 4.79004 10.7725H6.65189C6.75708 10.7725 6.75708 10.8448 6.77812 10.9067C7.11473 12.1346 7.44082 13.3728 7.77742 14.6007C8.07195 15.6945 8.36648 16.7883 8.67153 17.8717C8.68205 17.9027 8.69257 17.9233 8.72413 17.9543C8.78724 17.7169 8.85036 17.4796 8.91347 17.2526C9.39734 15.323 9.89173 13.3831 10.3756 11.4535C10.4282 11.2575 10.4808 11.0718 10.5229 10.8757C10.5439 10.7932 10.5755 10.7622 10.6596 10.7622C11.2066 10.7622 11.7536 10.7725 12.3006 10.7622C12.4163 10.7622 12.4373 10.8241 12.4584 10.9067C12.8686 12.3719 13.2683 13.8268 13.6786 15.2921C13.931 16.1898 14.1835 17.0875 14.457 17.9955C14.7199 16.974 14.9829 15.9525 15.2564 14.9206ZM21.1049 18.3567C21.1049 19.1099 21.0944 19.8632 21.1049 20.6061C21.1049 20.7506 21.0734 20.8228 20.9156 20.8022C20.4212 20.8022 19.9268 20.7919 19.4324 20.8022C19.2852 20.8022 19.2431 20.7609 19.2431 20.6165C19.2536 19.4608 19.2431 18.3051 19.2431 17.1597C19.2431 17.0875 19.2326 17.0256 19.2326 16.9534C19.2326 16.8811 19.2431 16.8089 19.2431 16.747V10.9892C19.2431 10.8344 19.2852 10.7828 19.4429 10.7828C19.9163 10.7932 20.3896 10.7932 20.8735 10.7828C21.0418 10.7828 21.1049 10.8138 21.1049 10.9995C21.0944 12.9497 21.1049 14.9 21.1049 16.8398C21.1049 16.9121 21.1049 16.9843 21.1155 17.0462C21.147 17.0875 21.1575 17.1288 21.1575 17.1804C21.1365 17.5725 21.1891 17.9646 21.1049 18.3567ZM29.5937 19.1615C29.6358 19.6775 29.6043 20.1934 29.6148 20.7093C29.6148 20.8228 29.5306 20.8022 29.4675 20.8022C29.1204 20.8022 28.7627 20.8125 28.4156 20.8125C28.342 20.8125 28.2683 20.8022 28.2052 20.8022H23.5348C23.3981 20.8022 23.3455 20.7815 23.3455 20.6268V10.9479C23.3455 10.8138 23.377 10.7828 23.5138 10.7828C24.0502 10.7932 24.5867 10.7932 25.1232 10.7828C25.2599 10.7828 25.2915 10.8138 25.2915 10.9479V15.1992C25.2915 15.2714 25.2915 15.3437 25.302 15.4056V16.1382C25.3756 16.2207 25.3546 16.3239 25.3546 16.4271V18.8417C25.3546 19.0893 25.3651 19.0996 25.6176 19.0996H28.2052C28.2999 19.0996 28.3946 19.0893 28.4787 19.1409C28.8258 19.1512 29.2045 19.1512 29.5937 19.1615Z" fill="white"/>
<path d="M21.1055 18.3568V17.0567C21.4842 16.9948 21.8628 16.9742 22.252 16.8916C21.7576 17.3043 21.3895 17.7996 21.1055 18.3568Z" fill="#746787"/>
<path d="M78.9812 20.8126C78.7392 20.8126 78.5078 20.8022 78.2659 20.8126C78.1502 20.8126 78.1186 20.7816 78.1186 20.6681V18.9552C78.0871 18.7695 78.066 18.5837 78.066 18.398V15.9422C78.066 15.8493 78.0555 15.7461 78.1186 15.6533V11.8457C78.1186 11.5465 78.1291 11.2369 78.1186 10.9377C78.1186 10.8242 78.1607 10.7932 78.2659 10.7932C78.7813 10.8035 79.2967 10.8035 79.8227 10.7932C79.9594 10.7932 79.9805 10.8448 79.9805 10.9583V14.7452C79.9805 14.8071 79.9805 14.8691 79.991 14.9413C79.991 15.0342 79.9805 15.127 79.9805 15.2199V20.6268C79.9805 20.7816 79.9489 20.8332 79.7911 20.8229C79.5176 20.7919 79.2547 20.8126 78.9812 20.8126ZM55.9026 16.4272C55.5765 16.4375 55.2504 16.4478 54.9243 16.4478H52.3051C52.1684 16.4478 52.1052 16.4788 52.1052 16.6232C52.1158 17.4384 52.1158 18.2432 52.1158 19.0584C52.1158 19.1925 52.1578 19.2338 52.2946 19.2338C53.7672 19.2338 55.2294 19.2338 56.702 19.2235C56.8703 19.2235 56.9124 19.2648 56.9124 19.4299C56.9019 19.822 56.9019 20.2244 56.9124 20.6165C56.9124 20.761 56.8703 20.8022 56.7231 20.8022H51.7266C51.6634 20.8022 51.6003 20.8022 51.5267 20.8126C51.1796 20.8126 50.8219 20.8022 50.4748 20.8126C50.317 20.8126 50.2644 20.7713 50.2644 20.6165C50.2749 18.1297 50.2644 15.643 50.2644 13.1562C50.2644 13.0839 50.2644 13.0014 50.2539 12.9292C50.2539 12.2894 50.2644 11.6497 50.2539 10.9996C50.2539 10.8345 50.2855 10.7829 50.4643 10.7829C51.9475 10.7932 53.4306 10.7829 54.9033 10.7829C54.9769 10.7829 55.0506 10.7829 55.1137 10.7726C55.6291 10.7726 56.134 10.7829 56.6389 10.7726C56.7757 10.7726 56.8282 10.7932 56.8177 10.9377C56.8072 11.3195 56.8072 11.7013 56.8177 12.0934C56.8282 12.2585 56.7651 12.2791 56.6179 12.2791C55.9762 12.2688 55.324 12.2791 54.6824 12.2791C54.5982 12.341 54.5036 12.3307 54.4089 12.3307H52.4313C52.1789 12.3307 52.1684 12.341 52.1684 12.5887V14.6936C52.1684 14.9103 52.1789 14.9207 52.3998 14.9207C52.7469 14.9207 53.094 14.931 53.4306 14.9207C54.2196 14.9 55.0085 14.9826 55.7974 14.9619C55.829 14.9619 55.8605 14.9619 55.8815 14.9826C55.9026 15.4779 55.9026 15.9525 55.9026 16.4272Z" fill="white"/>
<path d="M68.294 20.5959C68.2625 20.8952 68.4939 20.7714 68.6306 20.8126C68.6727 20.8539 68.7779 20.8126 68.7779 20.9158C68.4623 20.9984 68.1468 21.1016 67.8522 21.2357C67.5367 20.8126 67.1369 20.5237 66.611 20.4102C66.5058 20.3896 66.3796 20.4205 66.2849 20.3586C66.1271 20.1935 66.043 19.9871 66.043 19.7601C66.3796 19.5538 66.7162 19.3268 67.0107 19.0585C67.179 19.3474 67.3158 19.6466 67.5472 19.8943C67.7576 20.1522 67.9785 20.4205 68.294 20.5959Z" fill="#746787"/>
<path d="M78.1188 15.6534V18.9554C77.9926 18.6665 77.9294 18.3466 77.8874 18.037C77.8243 17.5933 77.7611 17.1496 77.7717 16.7059C77.7822 16.417 77.8137 16.1281 77.8348 15.8392C77.9294 15.7669 78.0136 15.6844 78.1188 15.6534Z" fill="#746787"/>
<path d="M55.9028 15.0032C54.8299 15.0032 53.7569 14.9929 52.6945 14.9929C52.5473 14.9929 52.4105 14.9826 52.2633 14.9929C52.1475 15.0032 52.1055 14.9619 52.1055 14.8484V12.4545C52.1055 12.3307 52.1475 12.2997 52.2633 12.2997C52.968 12.3101 53.6833 12.2997 54.3881 12.2997C54.4933 12.2997 54.5879 12.2997 54.6931 12.3101C54.6195 12.7641 54.5669 13.2181 54.5879 13.6721C54.609 14.0642 54.63 14.4563 54.7142 14.8484C54.7352 14.9619 54.7878 14.9723 54.8825 14.9723H55.7766C55.8292 14.9619 55.8818 14.9413 55.9028 15.0032Z" fill="#BA3C94"/>
<path d="M28.4481 19.1514C27.4278 19.1514 26.4075 19.1514 25.3871 19.1617C25.2819 19.1617 25.2714 19.1204 25.2714 19.0379C25.2714 18.0783 25.2714 17.1186 25.2819 16.159C26.8913 16.4273 28.1431 17.6036 28.4481 19.1514Z" fill="#EB208A"/>
<path d="M62.8975 16.7059L64.3491 20.4825C64.0651 20.6269 63.739 20.6682 63.434 20.7301C62.887 20.8333 62.3295 20.8539 61.772 20.8436C61.3197 20.823 60.8779 20.7714 60.4361 20.6682C60.3098 20.6372 60.3414 20.565 60.3414 20.4928V18.8315V16.8916C60.3414 16.7471 60.3835 16.7059 60.5307 16.7059C61.3197 16.7162 62.1086 16.7059 62.8975 16.7059Z" fill="#7C2570"/>
<path d="M68.7674 20.9158C68.7148 20.8849 68.6727 20.8436 68.6201 20.8126C69.0619 20.8126 69.5142 20.8023 69.956 20.8126C70.1033 20.8126 70.1454 20.7713 70.1454 20.6269C70.1348 19.3783 70.1454 18.1298 70.1348 16.8813C70.1348 16.7162 70.1874 16.6749 70.3452 16.6852C71.0816 16.6955 71.8179 16.6852 72.5542 16.6852C72.6489 16.6852 72.712 16.6955 72.7541 16.7987C73.0907 17.6964 73.4483 18.5941 73.7849 19.4918C73.7954 19.5125 73.7954 19.5228 73.7954 19.5434C73.6377 19.8427 73.4062 20.1006 73.1538 20.3276C72.6699 20.7507 72.1229 21.0603 71.4813 21.215C71.4182 21.2254 71.355 21.2357 71.2919 21.2357C70.5135 20.8849 69.7141 20.7507 68.8621 20.9055C68.841 20.9158 68.8095 20.9055 68.7674 20.9158Z" fill="#EB208A"/>
<path d="M47.6872 16.1176C47.34 15.839 46.9298 15.7049 46.467 15.6017C46.5511 15.5708 46.6037 15.5604 46.6563 15.5501C47.035 15.4366 47.3821 15.2509 47.6556 14.962C48.1921 14.3944 48.3393 13.7134 48.2341 12.9705C48.1184 12.1037 47.4347 11.1544 46.4249 10.9377C46.0041 10.8448 45.5834 10.7932 45.1521 10.7932C44.2264 10.7932 43.3113 10.7932 42.3856 10.7829C41.9754 10.7829 41.5546 10.7932 41.1444 10.7829C41.0076 10.7829 40.9761 10.8242 40.9761 10.948C40.9866 11.0925 40.9761 11.2369 40.9761 11.3814C40.9761 11.4536 40.9866 11.5362 40.9866 11.6084V20.6062C40.9866 20.7094 40.9655 20.8023 41.1444 20.8023C42.6486 20.7919 44.1423 20.792 45.6465 20.7816C46.1093 20.7816 46.5616 20.7197 46.9929 20.534C48.0238 20.1109 48.5182 19.3164 48.6023 18.2536C48.6444 17.4178 48.3814 16.6748 47.6872 16.1176ZM42.7222 13.5999V12.372C42.7222 12.2688 42.7327 12.2172 42.8695 12.2172C43.5953 12.2275 44.3211 12.2172 45.0469 12.2275C45.7306 12.2378 46.2881 12.6403 46.4144 13.1975C46.6353 14.1777 45.9936 14.9826 44.9733 14.9826C44.279 14.9929 43.5953 14.9826 42.901 14.9826C42.7643 14.9826 42.7222 14.9516 42.7327 14.8175C42.7222 14.4151 42.7222 14.0126 42.7222 13.5999ZM45.4045 19.2648C44.5525 19.3164 43.69 19.2751 42.8379 19.2854C42.7222 19.2854 42.7222 19.2132 42.7222 19.141V17.8615V16.5717C42.7222 16.4685 42.7538 16.4272 42.859 16.4272C43.6584 16.4375 44.4684 16.4169 45.2678 16.4375C45.9726 16.4581 46.5196 16.8812 46.6773 17.5106C46.8982 18.3774 46.3197 19.2029 45.4045 19.2648ZM38.9564 13.8475C38.5672 12.6815 37.8309 11.7838 36.6948 11.206C36.4214 11.0719 36.1163 10.9893 35.8323 10.8964C35.38 10.8139 34.9171 10.7726 34.4543 10.7829C33.9389 10.7932 33.434 10.7829 32.9185 10.7829C32.319 10.7829 31.7299 10.7932 31.1303 10.7829C30.9515 10.7829 30.8989 10.8139 30.9094 10.9996C30.9199 14.1984 30.9199 17.4075 30.9199 20.6062C30.9199 20.6681 30.9305 20.73 30.9305 20.8023C32.3084 20.7919 33.6864 20.8332 35.0644 20.761C35.096 20.7507 35.1275 20.7404 35.1696 20.7404C36.6002 20.5649 37.7467 19.9252 38.4936 18.7076C39.4298 17.1701 39.5034 15.5192 38.9564 13.8475ZM37.2524 16.2621C37.1998 16.9225 37.0525 17.5622 36.6528 18.1091C36.0953 18.883 35.3379 19.3061 34.3596 19.3061C33.8968 19.3061 33.4445 19.2958 32.9817 19.3061C32.8239 19.3061 32.8028 19.2648 32.8028 19.1203C32.8134 17.9956 32.8028 16.8812 32.8028 15.7565V12.3926C32.8028 12.2482 32.8344 12.2069 32.9817 12.2069C33.455 12.2172 33.9178 12.2275 34.3912 12.2069C35.4957 12.1656 36.2531 12.6919 36.7685 13.6102C37.2313 14.446 37.326 15.3437 37.2524 16.2621ZM75.3625 18.5631C75.1522 18.0369 74.9418 17.5106 74.7419 16.9844C74.6683 16.8193 74.6052 16.6645 74.5315 16.4994C74.4789 16.3962 74.5 16.355 74.6157 16.3137C75.0259 16.1383 75.3836 15.9009 75.6781 15.5708C76.2146 14.9516 76.3618 14.219 76.2987 13.4451C76.204 12.3307 75.6676 11.5052 74.5841 11.0719C74.1213 10.8861 73.6269 10.7932 73.122 10.7932C71.5862 10.7829 70.0399 10.7932 68.5042 10.7829C68.3359 10.7829 68.3043 10.8242 68.3043 10.9893V20.3689C68.3043 20.4411 68.3043 20.5237 68.2938 20.5959C68.2412 20.7816 68.2728 20.8435 68.4621 20.8539C68.5147 20.8539 68.5673 20.8642 68.6199 20.8539C69.0932 20.8332 69.5561 20.792 70.0294 20.8332C70.1346 20.8435 70.1977 20.7816 70.2082 20.6888C70.2188 20.6062 70.2188 20.5237 70.2188 20.4411V16.9638C70.2188 16.7368 70.2293 16.7264 70.4607 16.7264H72.4172C72.6697 16.7264 72.6802 16.7368 72.7644 16.9638C73.0694 17.7583 73.3745 18.5425 73.6795 19.337C73.7111 19.4093 73.7321 19.4918 73.8057 19.5434C73.953 19.9149 74.1003 20.2863 74.2475 20.6681C74.2896 20.7713 74.3317 20.8126 74.4474 20.8126C74.9838 20.8023 75.5308 20.8023 76.0673 20.8126C76.2356 20.8126 76.2356 20.761 76.183 20.6372L75.3625 18.5631ZM74.3001 14.219C74.1318 14.7762 73.69 15.0445 73.143 15.158C72.9116 15.2096 72.6802 15.2302 72.4488 15.2302H70.324C70.1872 15.2302 70.1346 15.1993 70.1451 15.0548C70.1556 14.6111 70.1451 14.1674 70.1451 13.7237V12.3926C70.1451 12.2688 70.1662 12.2172 70.3134 12.2172C71.1024 12.2275 71.9018 12.2069 72.6907 12.2275C73.1851 12.2378 73.6585 12.3514 74.0161 12.7331C74.4263 13.1665 74.4684 13.6825 74.3001 14.219ZM66.2636 20.3586C66.169 20.1625 66.0848 19.9665 66.0217 19.7601C66.0007 19.7188 65.9796 19.6879 65.9691 19.6466C65.5483 18.6044 65.1276 17.5726 64.7068 16.5304C64.6542 16.3962 64.6858 16.355 64.8015 16.3034C65.4852 16.0041 66.0217 15.5398 66.2952 14.8278C66.4951 14.3016 66.5371 13.7547 66.4425 13.2078C66.2952 12.2482 65.7903 11.5362 64.8751 11.1234C64.3702 10.8964 63.8338 10.7932 63.2868 10.7932C61.6879 10.7829 60.089 10.7829 58.4901 10.7829V19.0997C58.4901 19.6053 58.4901 20.1109 58.4796 20.6269C58.4796 20.7713 58.5217 20.8023 58.6584 20.8023C59.1528 20.7919 59.6472 20.7919 60.1416 20.8023C60.2889 20.8023 60.3204 20.761 60.3099 20.6269C60.2994 19.3577 60.3099 18.0885 60.2994 16.8296C60.2994 16.7058 60.3415 16.6748 60.4572 16.6748H62.7398C62.7924 16.6748 62.845 16.6542 62.887 16.7058C62.8555 16.7677 62.887 16.8296 62.9081 16.8915C63.3394 18.0266 63.7812 19.1616 64.2124 20.2967C64.244 20.3689 64.2545 20.4411 64.3281 20.4824C64.3807 20.761 64.5596 20.8435 64.8225 20.8023C64.8436 20.8023 64.8646 20.8023 64.8962 20.8126C64.9277 20.8126 64.9593 20.8023 64.9803 20.8023H66.2636C66.3899 20.8023 66.4004 20.7713 66.3583 20.6681C66.3373 20.5649 66.3057 20.4618 66.2636 20.3586ZM64.4649 14.2397C64.2861 14.7865 63.8548 15.0445 63.3078 15.1683C63.0764 15.2199 62.8555 15.2406 62.6136 15.2406H60.4572C60.3309 15.2406 60.2994 15.2096 60.2994 15.0858C60.3099 14.6318 60.2994 14.1881 60.2994 13.734V12.3823C60.2994 12.2585 60.3415 12.2275 60.4572 12.2275C61.2566 12.2275 62.0455 12.2172 62.845 12.2379C63.3499 12.2482 63.8232 12.3617 64.1809 12.7538C64.6016 13.1872 64.6437 13.7031 64.4649 14.2397Z" fill="white"/>
</svg>
